<svg xmlns="http://www.w3.org/2000/svg" viewBox="0 0 1069.48 700.54"><defs><style>.a{fill:#f5f5f5;}.b{fill:#80a879;}.c{fill:#6eada7;}.d{fill:#6cada8;}.e{fill:#637b81;}.f{fill:#b1d4ac;}.g{fill:#003472;}.h{fill:#222a2f;}.i{fill:#8fafff;}</style></defs><title>Vector Smart Object</title><path class="a" d="M490.75,605.05a28.08,28.08,0,0,1-.59-4.71,24.5,24.5,0,0,0-.48-3.73,12.83,12.83,0,0,0-1.08-3.35,19.49,19.49,0,0,1-1.53-4.78,19.29,19.29,0,0,0-1-3.56,24.41,24.41,0,0,1-1.34-4.62,16.8,16.8,0,0,1-.32-5.15,10.68,10.68,0,0,0-.21-3.39,14.8,14.8,0,0,0-1-3.37l0-.1a21.46,21.46,0,0,1-1.44-4.68A31.53,31.53,0,0,1,481,559l-.06-.55-.12-.2a5.14,5.14,0,0,0-3.8-2.67,3.26,3.26,0,0,0-2.85.92c-1.32,1.38-1.65,4.07-1,8.21a1.75,1.75,0,0,1-.09.91l-.1.26,0,.26c0,.17.06.33.08.54.06.39.11.8.16,1.2l.17,1.72c.07.88.15,1.92.17,3A25.76,25.76,0,0,1,473,579a19.17,19.17,0,0,1-2.64,6.14,25.19,25.19,0,0,1-4.14,4.82,51,51,0,0,1-4.6,3.77,23.84,23.84,0,0,1-5.59,3.17,15.17,15.17,0,0,1-3.46.88,16.18,16.18,0,0,1-1.83.11c-.59,0-1.16-.05-1.7-.09a23,23,0,0,1-6.3-1.66,31.42,31.42,0,0,1-5.43-3,39.59,39.59,0,0,1-4.74-3.76,31.6,31.6,0,0,1-4.08-4.6,22.88,22.88,0,0,1-1.73-2.76,25.89,25.89,0,0,1-1.27-2.9c-.07-.2-.14-.4-.2-.6l-.15-.41c-.49-1.43-.88-2.79-1.25-4.11l-.32-1.09-.1-.21a22,22,0,0,0-2.12-3.15c-3.36-4.1-8.59-6-14.34-5.29a1.88,1.88,0,0,1-.52,0l-.17,0-.16,0c-.28,0-.57.1-.89.16l-.25.05a19.91,19.91,0,0,0-4.06,1.2,26.1,26.1,0,0,1-5.2,1.55,4.3,4.3,0,0,0-3.12,2,4.42,4.42,0,0,0-.75,3.68c.41,2,.58,3.11.75,4.15l.09.55c.15.92.31,1.89.66,3.65s.63,2.86.88,3.8l.1.38c.26,1,.54,2.08.94,4.09a26.28,26.28,0,0,1,.55,4.77,18.65,18.65,0,0,0,.43,3.68,19,19,0,0,0,1,3.58,24.9,24.9,0,0,1,1.32,4.61,15.87,15.87,0,0,1,.25,5.27,9.39,9.39,0,0,0,.16,3.29c.41,2.08.58,3.16.74,4.21l.09.51c.15.91.31,1.89.66,3.62a4.05,4.05,0,0,0,.95,1.8l.14.13a15,15,0,0,0,3.24,2.09l.63.37.23-.23a9.82,9.82,0,0,0,2-.19c2.3-.46,3.46-.65,4.48-.81s2.14-.36,4.26-.79a24.74,24.74,0,0,1,5.1-.53,18.17,18.17,0,0,0,3.79-.41,13.81,13.81,0,0,0,3.54-1.14,20.31,20.31,0,0,1,5-1.59,23.19,23.19,0,0,1,5.06-.53,17,17,0,0,0,3.81-.4,15.08,15.08,0,0,0,3.68-1.14,22.31,22.31,0,0,1,4.87-1.5c2.07-.41,3.09-.7,4.1-1s2.26-.63,4.53-1.09c1.75-.34,2.75-.57,3.66-.77l.64-.14c1.08-.25,2.2-.51,4.4-1s3.33-.58,4.38-.71l.25,0a40.26,40.26,0,0,0,4.16-.66c2.11-.42,3.23-.62,4.29-.81l.84-.16c.88-.16,1.91-.35,3.6-.69a4.86,4.86,0,0,0,3.32-2.14C490.55,607.47,491,606.16,490.75,605.05Zm-8.59-36.38Z" transform="translate(-95.28 -189.79)"/><path class="b" d="M447,459l-.13-.27-.25-.15-1.25-.78c-.73-.49-1.38-.91-2-1.3s-1.2-.68-1.83-1l-2.35-1.2c-1.64-.81-3.18-1.64-4.58-2.46-1.56-.93-2.82-1.66-4.24-2.4l-4.39-2.2-3.06-1.5c-1.9-.92-3.87-1.88-5.77-2.86l-.15-.08a2.48,2.48,0,0,1,1.14-4.69l.26,0a6.58,6.58,0,0,0,1-.35l.25-.17a2.6,2.6,0,0,0,.66-2.87l-.34-1.13-.08-.19c-1.22-2.24-2.63-4.91-3.91-7.69-.92-2-1.64-4.06-2.34-6l-.05-.13c-.61-1.76-1.24-3.57-2-5.29-1.24-2.78-2.64-5.56-4-8.26l-1.31-2.59L405,400.79l-.08-.16a73.33,73.33,0,0,0-4.19-7.81,42.73,42.73,0,0,0-5.76-6.7c-.65-.67-1.31-1.33-1.93-2l-.35-.37a6.8,6.8,0,0,0-3.73-2c-2.18-.2-3.85,1.35-5.19,2.6l-.33.3a1.73,1.73,0,0,1-.62.38l-.18.07-.15.13c-2.45,2.19-5.56,3.21-8.3,4.11l-.47.14-1.48.51a25.43,25.43,0,0,1-8.41,1.83c-.22,0-.43,0-.68,0a40.23,40.23,0,0,1-10.55-2.07,32.13,32.13,0,0,1-7.52-4l-1.78-1.14c-.86-.54-1.86-1-2.82-1.54a21.3,21.3,0,0,1-6.29-4.23,41.25,41.25,0,0,1-4.61-5.89l-.16-.19-.63-.57a2.44,2.44,0,0,0,0-.27v-.27l-.13-.23c-.3-.52-.58-1-.83-1.57a27.36,27.36,0,0,1-1.12-2.66l-.07-.19-.13-.14-.77-.89-.49-.57c-1.4-1.62-4.3-1.29-7.23-.69l-.11,0c-.72.23-1.4.49-2.17.78-1.79.68-3.4,1.33-4.92,2-1.73.77-3.26,1.51-4.67,2.27-.8.43-1.52.84-2.2,1.27s-1.36.87-2.09,1.41c-1.31.93-2.65,2-4.11,3.22l-2.07,1.74c-.72.61-1.24,1.06-1.86,1.68a60.06,60.06,0,0,0-4.48,5.12c-.78,1-1.6,2-2.46,3a50,50,0,0,1-4.11,4.19c-1.26,1.19-2.57,2.43-3.67,3.65a48.36,48.36,0,0,0-5.43,8.31l-.13.23c-1.36,2.39-2.59,4.85-3.78,7.22l-1.23,2.44-2.45,4.87c-.85,1.7-1.71,3.33-2.57,5s-1.63,3.15-2.37,4.74l-4.43,10.29.17.39c0,.08.07.16.1.23l-.28.58c-.51,1-1,2.07-1.55,3.1l-.11.21v.08c-.16.56-.32,1.13-.48,1.73-.31,1.13-.62,2.29-1,3.52a28.43,28.43,0,0,1-1.08,2.85c-.39.91-.83,1.78-1.27,2.64s-1,1.87-1.49,2.76c-.4.71-.78,1.41-1.14,2.09a33.62,33.62,0,0,0-2.09,4.65c-.44,1.19-.85,2.41-1.29,3.76l-.1.31.1.32.09.25-.19.52c-.37,1-.75,2.05-1.11,3.08l-.3,0-.27.71c-.21.53-.42,1-.62,1.53-.43,1-.81,1.86-1.18,2.64s-.88,1.71-1.4,2.59-.82,1.44-1.18,2.19-.64,1.43-.93,2.15l-.12.28a2.49,2.49,0,0,1-3.23,1.37,3.84,3.84,0,0,1-.35-.18l-1-.6-.44,1.08-4.84,12a5.79,5.79,0,0,0-.18,3.75l.21.75,4.84-.06c1.24,0,2.47-.09,3.9-.2s2.79-.23,4.16-.29l3.13-.07h1.11a27,27,0,0,1,4.48.41l1.5.28.58.12c.63.13,1.21.23,1.78.3a29.49,29.49,0,0,0,3.68.18,25.3,25.3,0,0,0,3.63-.26c.61-.09,1.24-.22,2-.38s1.22-.27,1.95-.41a29.37,29.37,0,0,1,4.5-.42c1.52,0,2.9,0,4.34.08,1.19.07,2.42.24,3.51.38l.71.1a30.91,30.91,0,0,0,3.73.28c1.44,0,2.73,0,3.83-.06a37,37,0,0,0,3.77-.4,41.31,41.31,0,0,1,4.32-.43c1.11-.06,2.22-.07,3.51-.05h.17c4.62-.34,11.61-.84,12-6.87a21.13,21.13,0,0,0-.62-6.07l0-.1c-.67-1.94-1.28-3.69-1.94-5.4l-.1-.25c-.29-.74-.68-1.75-1-2.62s-.65-2-.93-2.93c-.18-.58-.35-1.16-.52-1.73-.4-1.32-.79-2.61-1.2-3.84-.29-.91-.58-1.75-.93-2.68l-1.4-3.64c-.59-1.52-1.19-3.05-1.77-4.6-.34-1-.67-1.91-1-2.89l-.94-2.64c-.36-.91-.76-1.85-1.17-2.81s-.72-1.71-1.08-2.59a38.35,38.35,0,0,1-2-6,57.53,57.53,0,0,1-.95-6.73c-.18-1.77-.34-3.44-.66-5l0-.12a2.07,2.07,0,0,1,1.62-2.35,2.09,2.09,0,0,1,2.37,1.4,48.08,48.08,0,0,1,1.36,6,46.34,46.34,0,0,0,1.24,5.49,47,47,0,0,0,2.89,6.75c.58,1.19,1.18,2.42,1.76,3.71.22.47.42.94.62,1.4l.57,1.46q.51,1.33,1.08,2.67l3.46,8.17c.3.74.62,1.55.9,2.32l.25.69.61,0a48.76,48.76,0,0,0,3,8.62c-.1.23-.19.43-.26.64l-.11.33.12.33q.12.33.27.69l.12.3c.75,1.88,1.42,3.76,2.1,5.67.6,1.72,1.28,3.66,2,5.32a23.2,23.2,0,0,0,2.56,4.47,33.66,33.66,0,0,0,3.5,4c.32.31.68.66,1,.9s.61.54.94.8a21.45,21.45,0,0,0,2.08,1.41,35.58,35.58,0,0,0,4.84,2.3c1.19.46,2.54.95,3.88,1.43l8.71,3.13c1.33.49,2.68,1,4,1.5l6.11,2.39h.19a6.91,6.91,0,0,0,2.91-.61,5.24,5.24,0,0,0,2-1.69l.16-.23,0-.28A24.12,24.12,0,0,1,368.37,494l.29-.25,0-.38c.31-2.62-1.34-3.42-2.79-4.12l-.25-.12a8.43,8.43,0,0,1-1.12-.66l-.13-.08-.74-.38a55.52,55.52,0,0,1-5.07-3c-1.72-1.17-2.94-2-4.44-2.79l-1.2-.65a24.94,24.94,0,0,1-4-2.49,12.83,12.83,0,0,1-2.61-2.77c-.19-.28-.36-.56-.52-.84l-1-1.84a56.7,56.7,0,0,1-2.63-5.29c-.43-1-.78-2-1.06-2.91a21.2,21.2,0,0,1-.76-3.19,30.68,30.68,0,0,1-.21-5.54v-.59a33.56,33.56,0,0,0-.11-5c-.18-1.52-.46-3.19-.73-4.8l-.09-.51c-.32-1.86-.62-3.72-.88-5.53l-.38-2.67c-.15-.84-.31-1.7-.49-2.59l-1.19-5.34c-.42-1.83-.8-3.89-1.05-5.66l-.2-1.34c-.2-1.38-.39-2.68-.64-3.91a21.9,21.9,0,0,0-.62-2.35c-.09-.31-.26-.75-.43-1.22l-.47-1.24a46.41,46.41,0,0,0-4.71-9.27,42.51,42.51,0,0,0-7-7.76l-.07-.05a2.08,2.08,0,0,1-.64-1.38A2,2,0,0,1,321,394a2.07,2.07,0,0,1,2.73-.32,42.19,42.19,0,0,1,8.46,8,46.51,46.51,0,0,1,5.94,10l.72,1.67c.14.32.27.63.41,1a27.13,27.13,0,0,1,.93,3c.43,1.65.72,3.24,1,4.78l.15.83c.3,1.69.62,3.2,1.14,5.21l.35,1.34c.34,1.32.7,2.67,1,4.06.21.92.42,1.87.6,2.84l.46,2.82c.2,1.19.42,2.4.65,3.62l.35,1.9.59,1.06c.5.9,1,1.81,1.51,2.71.12.2.24.41.35.62a15.21,15.21,0,0,0,1,1.71c1.39,1.91,2.06,2.68,4.86,2.32,5.13-.66,9.39-6.47,11.67-9.59a1.84,1.84,0,0,1,.62-.52l.21-.11.14-.19a43.3,43.3,0,0,0,6.94-14.12,59.61,59.61,0,0,0,1.84-16.83,2.07,2.07,0,0,1,2-2.09,2.11,2.11,0,0,1,2.07,1.86c.17,1.61.28,3.3.34,5l.05.27a2.53,2.53,0,0,1,.11.56c.33,9.07,1.13,18.58,6.79,26.43l.37.41c1.22,1.4,2.36,2.66,3.46,3.85s2.39,2.51,3.53,3.59a44,44,0,0,0,3.71,3.2c1.36,1.06,2.78,2,4.11,2.95l1.14.77c1.06.71,2.15,1.45,3.28,2.28,1,.72,1.85,1.44,2.7,2.14l1.48,1.2a15.8,15.8,0,0,0,3.67,2.31,5.53,5.53,0,0,0,.93.34l1.19.36c.73.21,1.52.42,2.27.56s1.35.24,2.34.36l.34,0c.75.09,1.6.19,2.45.35a41.51,41.51,0,0,1,5.51,1.47l8.19,2.68.26.05a9.57,9.57,0,0,0,2.73-.2l.16-.06a10.38,10.38,0,0,0,1.26-.67h.55l.15-.82a15.72,15.72,0,0,1,3-6.65l.09-.16C446.82,462.57,447.85,460.74,447,459Z" transform="translate(-95.28 -189.79)"/><path class="c" d="M775.86,718.58Z" transform="translate(-95.28 -189.79)"/><path class="d" d="M341.22,646.69a3.49,3.49,0,0,1,0,7c-2.28.08-4.37.23-6.75.39s-4.7.2-7,.24-4.6,0-6.85.05-4.38.07-6.6.26-4.91.24-7.08.26c-1.11,0-2.19,0-3.29.11s-2.33.12-3.52.15-2.34,0-3.58,0-2.53-.06-3.82-.2-2.35-.29-3.32-.36-2-.1-3.08-.1-2.15,0-3.18.07-2.07.17-3.35.27h-.24a21.24,21.24,0,0,0-5.53,2.62,16.55,16.55,0,0,1-1.75,2.06,12.39,12.39,0,0,1-17.89-.09,16,16,0,0,1-2-2.53q-.34-.34-.69-.72a6.67,6.67,0,0,0-2.86-1.79c-1,.12-2.2.27-3.38.31-5.09.12-9.5-.33-14-.49h0a3.49,3.49,0,0,1,0-7l3.51-.1h3.45c2.21,0,4.57,0,6.52-.23,1-.09,1.91-.24,3.15-.44.33-.05.66-.08,1-.12l2.9-1.46a15.76,15.76,0,0,1,2.48-3.2,12,12,0,0,1,17.72,0,18.72,18.72,0,0,1,2,2.4,33.89,33.89,0,0,0,4.82,2.12h.15c1-.08,2.22-.22,3.49-.3s2.5-.1,3.7-.11,2.48,0,3.78.15,2.55.3,3.51.4,2,.15,3,.17,2.21,0,3.29,0,2.17,0,3.35-.08,2.39-.06,3.57-.06c2.42,0,4.41,0,6.66-.08s4.85-.12,7.13-.06,4.69.18,6.89.25,4.52.16,6.71.15l3.46,0C338.88,646.61,340.06,646.65,341.22,646.69Z" transform="translate(-95.28 -189.79)"/><path class="d" d="M341.24,684.28a3.49,3.49,0,0,1,0,7c-1.18,0-2.38.07-3.61,0s-2.43-.11-3.48-.14-2.13,0-3.23,0-2.24.07-3.34.12l-3.36.17c-1.17.07-2.38.12-3.55.15-2.32.06-4.71.07-7,0-1.14,0-2.22,0-3.33,0h-1.79a7.08,7.08,0,0,1-1.54.4c-1.62.22-3.52-.33-5,.49a3.72,3.72,0,0,0-.61.43,14.27,14.27,0,0,1-2.51,3.34c-2.31,2.32-5.24,4.4-8.78,4.4a13.17,13.17,0,0,1-9.08-4.09,15,15,0,0,1-1.72-2.07,19.24,19.24,0,0,0-4.83-2.28c-.67,0-1.34,0-2-.05-1.22,0-2.48-.15-3.56-.23s-2.12-.13-3.21-.16-2.21,0-3.28,0-2.1,0-3.24.11c-2.35.15-4.93.15-7.16.09l-6.87-.14-3.49-.1a36.57,36.57,0,0,1-3.82-.34c-1.31-.2-2.33-.42-3.3-.54s-2-.21-3.09-.26h0a3.49,3.49,0,0,1,0-7,36.83,36.83,0,0,1,3.78,0c1.31.08,2.55.28,3.51.36a27.43,27.43,0,0,0,3,.09l3.38-.09,6.87-.15c2.35,0,4.37-.07,6.58-.29,1.15-.1,2.42-.18,3.62-.22s2.39-.05,3.6-.05,2.45,0,3.65.11,2.23.14,3.29.16l1.61,0a7.62,7.62,0,0,0,3.48-1.44c.23-.18.44-.37.65-.57a13.13,13.13,0,0,1,2.39-3.33,13.32,13.32,0,0,1,9.24-3.9c3.54,0,6.43,2.08,8.75,4.4a16.23,16.23,0,0,1,1.1,1.24,15.43,15.43,0,0,0,6.5,3.14h.4c1.21,0,2.37,0,3.55,0s2.38.08,3.53.14c2.24.13,4.43.17,6.69.2,1.12,0,2.21,0,3.33,0s2.32,0,3.5,0,2.34,0,3.53.08,2.42.11,3.64.22l3.38.33c1,.1,2.14.16,3.25.2Z" transform="translate(-95.28 -189.79)"/><path class="d" d="M541.28,705.07a10.88,10.88,0,0,1-3.09,7.66,11.14,11.14,0,0,1-7.66,3.38,10.41,10.41,0,0,1-6.61-2.69l-3.91,2.2L515.82,718l-4.21,2.34-4.16,2.31c-2.11,1.18-3.18,1.76-4.24,2.33s-2.08,1.13-4.15,2.29l-1.84,1c0,.16,0,.32,0,.49a10.66,10.66,0,0,1-3.18,7.53,10.33,10.33,0,0,1-7.53,2.77c-2.95,0-5.81-.63-7.74-2.56a10.93,10.93,0,0,1-2.9-7.74,12.69,12.69,0,0,1,1.07-5.19l-1.4-2c-1.45-2-2.21-3-3-4s-1.74-2.17-3.35-4.43-2.33-3.38-3.06-4.49-1.41-2.15-2.9-4.25l-3-4.28c-.78-1.08-1.55-2.16-3.09-4.34s-2.36-3.51-3.07-4.7-1.28-2.13-2.71-4.15-2.24-3.07-3-4.11-1.68-2.17-3.26-4.4l-.41-.58a10.37,10.37,0,0,1-2.09.22A10.76,10.76,0,0,1,435,674.8a10.46,10.46,0,0,1-3-7.53,9.71,9.71,0,0,1,10.48-10.57,9.8,9.8,0,0,1,10.69,10.57,10.85,10.85,0,0,1-1.51,5.54l.43.62c1.48,2.09,2.24,3.07,3,4.11s1.68,2.16,3.26,4.4,2.36,3.51,3.07,4.7,1.28,2.13,2.72,4.15c1.53,2.17,2.3,3.24,3.07,4.32l3,4.3c1.58,2.22,2.34,3.38,3.07,4.5s1.41,2.14,2.9,4.24,2.21,3,3,4,1.74,2.16,3.35,4.43L484,718.5a15.88,15.88,0,0,1,2.49-.2,11.35,11.35,0,0,1,7,2.08l1.3-.73c2.12-1.19,3.18-1.76,4.25-2.34s2.08-1.13,4.14-2.28l4.19-2.33,4.17-2.32c2.08-1.16,3.11-1.75,4.15-2.34s2.09-1.19,4.19-2.36l.37-.21c0-.13,0-.26,0-.4a10.21,10.21,0,0,1,2.8-7.47,10.75,10.75,0,0,1,7.47-3.42c3,0,5.32,1.71,7.25,3.64S541.28,702.13,541.28,705.07Z" transform="translate(-95.28 -189.79)"/><path class="e" d="M275.17,783.76c1.91,0,3.63,1.09,3.49,3a47.88,47.88,0,0,1-1.5,10c-1,3.25-3.09,6-4.7,9s-3,6.1-5.2,8.62a49,49,0,0,1-7.18,7.22,48.53,48.53,0,0,1-8.86,5c-3,1.37-6.53,1.54-9.85,2.26s-6.49,1.84-9.92,1.84c-3.68,0-7.15-1.35-10.59-2.15s-7.29-1.12-10.49-2.7a57.46,57.46,0,0,1-16.29-14.09c-2.18-2.85-4.85-5.57-6.35-8.88s-2-7-2.75-10.58-.46-7.1-.34-10.79a45.58,45.58,0,0,1,1.7-9.8c.84-3.27,1.08-6.76,2.57-9.73s4.12-5.33,6.21-7.93,3.83-5.63,6.42-7.74a48.07,48.07,0,0,1,8.65-5.2c3-1.51,6.31-2,9.58-2.83s6.31-2.3,9.72-2.43a47,47,0,0,1,10,1c3.34.57,6.79.89,9.85,2.13,1.77.72,1.61,2.95.76,4.67-2.49,5-2.48,5-5,10.08s-1.6,5.48-4.1,10.52a4.3,4.3,0,0,1-5.13,1.95c-1.4-.36-2.92-1.12-4.43-1.12-3.26,0-5.95,2.33-8.56,3.9s-5.71,3.1-7.19,5.88a18,18,0,0,0,3,21.09c2.93,2.94,7.48,3.51,11.84,3.73s8.37-.24,11.52-2.67a17.18,17.18,0,0,0,6-10.35,5.08,5.08,0,0,1,4.6-3.88c5.62,0,5.62,1,11.25,1Z" transform="translate(-95.28 -189.79)"/><path class="e" d="M289.76,775.63c.11,1.77-1.92,3.24-3.7,3.24-6.42,0-6.42.62-12.85.62s-6.42-1-12.85-1c-1.76,0-2.52-1-2.81-2.69-.81-5-4.33-9.13-8.25-12-1.44-1-1.26-2.64-.48-4.22,2.85-5.76,2.1-6.13,5-11.89s3.69-5.34,6.54-11.1c.79-1.6,1.83-2.3,3.37-1.41,2.9,1.68,6.21,2.84,8.71,5a53.22,53.22,0,0,1,7.08,7.24c2,2.64,3.18,6,4.66,9a51,51,0,0,1,3.55,9.34A52.09,52.09,0,0,1,289.76,775.63Z" transform="translate(-95.28 -189.79)"/><path class="d" d="M617.77,583.83a2.71,2.71,0,0,1,0,2.85,32.15,32.15,0,0,1-2.88,3.73c-.28.32-.57.63-.86.94l.76.83a29.72,29.72,0,0,1,2.87,3.75,2.69,2.69,0,0,1-3.65,3.75,28.62,28.62,0,0,1-3.83-2.75c-.34-.28-.67-.57-1-.86-.33.29-.66.58-1,.85a31.05,31.05,0,0,1-3.83,2.76,2.68,2.68,0,0,1-3.64-3.75,31.36,31.36,0,0,1,2.87-3.74c.25-.29.51-.56.76-.84-.28-.31-.58-.62-.86-.94a36.68,36.68,0,0,1-2.89-3.73,2.68,2.68,0,0,1,3.64-3.76A35.54,35.54,0,0,1,608,585.7c.38.31.75.64,1.12,1,.37-.33.74-.65,1.13-1a32.4,32.4,0,0,1,3.82-2.77A2.69,2.69,0,0,1,617.77,583.83Z" transform="translate(-95.28 -189.79)"/><path class="d" d="M588.49,584.8v13a3.48,3.48,0,0,1-3.49,3.48H572a3.48,3.48,0,0,1-3.49-3.48v-13a3.49,3.49,0,0,1,3.49-3.49h13A3.49,3.49,0,0,1,588.49,584.8Zm-7,7.63v-2.25a1.89,1.89,0,0,0-1.89-1.89h-2.24a1.9,1.9,0,0,0-1.9,1.89v2.25a1.9,1.9,0,0,0,1.9,1.89h2.24A1.89,1.89,0,0,0,581.51,592.43Z" transform="translate(-95.28 -189.79)"/><path class="d" d="M554.9,595.19a2.78,2.78,0,0,1,0,5.23,14.29,14.29,0,0,1-2.95.68,22.33,22.33,0,0,1-2.94.19,20.77,20.77,0,0,1-3-.18,13.13,13.13,0,0,1-2.95-.69,2.8,2.8,0,0,1-1.63-3.6,2.84,2.84,0,0,1,1.63-1.63,13.13,13.13,0,0,1,2.95-.69,20.77,20.77,0,0,1,3-.18,24.18,24.18,0,0,1,2.94.19A15,15,0,0,1,554.9,595.19Z" transform="translate(-95.28 -189.79)"/><path class="f" d="M398,732.62a2.79,2.79,0,0,1-3.43,4.4,17.25,17.25,0,0,0-7-3.3,8.26,8.26,0,0,0-3.25.18,12.89,12.89,0,0,0-3.21,1.46c-.52.39-1.06.69-1.56,1.14l-.77.63-.49.4-.64.51a13.67,13.67,0,0,1-5.68,2.28,16.26,16.26,0,0,1-5.86-.11,14,14,0,0,1-5.63-2.51,16.89,16.89,0,0,0-6.55-3.51,7.8,7.8,0,0,0-3.12,0,13.39,13.39,0,0,0-3.23,1.28c-.54.36-1.09.64-1.62,1.06L344.07,738a13.3,13.3,0,0,1-5.66,2.07,15.6,15.6,0,0,1-5.7-.31,13.12,13.12,0,0,1-5.25-2.62,2.79,2.79,0,0,1,3.3-4.48l.13.09a9.28,9.28,0,0,0,6.52,1,7.81,7.81,0,0,0,2.85-1.23l1.66-1.38c.66-.56,1.45-1,2.17-1.56a18.84,18.84,0,0,1,5.21-2.25,15,15,0,0,1,6-.15,17.76,17.76,0,0,1,5.35,2,30.74,30.74,0,0,1,4.28,2.89,7.1,7.1,0,0,0,2.69,1.22,9.52,9.52,0,0,0,3.28.12,7.43,7.43,0,0,0,2.83-1l.27-.19.16-.11.25-.2,1-.8c.67-.54,1.48-1,2.21-1.48a19.51,19.51,0,0,1,5.24-2.08,14.55,14.55,0,0,1,5.88,0,16.81,16.81,0,0,1,5.14,2.08A29.21,29.21,0,0,1,398,732.62Z" transform="translate(-95.28 -189.79)"/><path class="f" d="M398,755.06a2.79,2.79,0,0,1-3.43,4.4,17.12,17.12,0,0,0-7-3.3,8.26,8.26,0,0,0-3.25.18,13.22,13.22,0,0,0-3.21,1.45c-.52.4-1.06.7-1.56,1.15l-.77.63-.49.4-.64.5a13.69,13.69,0,0,1-5.68,2.29,16.49,16.49,0,0,1-5.86-.11,14,14,0,0,1-5.63-2.51,16.89,16.89,0,0,0-6.55-3.51,7.8,7.8,0,0,0-3.12,0,13,13,0,0,0-3.23,1.28c-.54.36-1.09.64-1.62,1.06l-1.94,1.47a13.3,13.3,0,0,1-5.66,2.07,15.6,15.6,0,0,1-5.7-.31,13.12,13.12,0,0,1-5.25-2.62,2.79,2.79,0,0,1,3.3-4.48l.13.09a9.28,9.28,0,0,0,6.52,1,7.81,7.81,0,0,0,2.85-1.23l1.66-1.38c.66-.56,1.45-1,2.17-1.56a18.84,18.84,0,0,1,5.21-2.25,15,15,0,0,1,6-.15,17.76,17.76,0,0,1,5.35,2,29.89,29.89,0,0,1,4.28,2.89,7.1,7.1,0,0,0,2.69,1.22,9.77,9.77,0,0,0,3.28.12,7.43,7.43,0,0,0,2.83-1l.27-.19.16-.11.25-.2,1-.8c.67-.54,1.48-1,2.21-1.48a19.51,19.51,0,0,1,5.24-2.08,14.55,14.55,0,0,1,5.88,0,16.81,16.81,0,0,1,5.14,2.08A29.21,29.21,0,0,1,398,755.06Z" transform="translate(-95.28 -189.79)"/><path class="f" d="M398,777.5a2.79,2.79,0,0,1-3.43,4.4,17.12,17.12,0,0,0-7-3.3,8.26,8.26,0,0,0-3.25.18,13.22,13.22,0,0,0-3.21,1.45c-.52.4-1.06.7-1.56,1.14l-.77.64-.49.4-.64.5A13.69,13.69,0,0,1,372,785.2a16.73,16.73,0,0,1-5.86-.11,14,14,0,0,1-5.63-2.51,16.89,16.89,0,0,0-6.55-3.51,7.63,7.63,0,0,0-3.12,0,13,13,0,0,0-3.23,1.28c-.54.36-1.09.64-1.62,1.06l-1.94,1.47a13.3,13.3,0,0,1-5.66,2.07,15.6,15.6,0,0,1-5.7-.31,13.12,13.12,0,0,1-5.25-2.62,2.79,2.79,0,0,1,3.3-4.48l.13.09a9.33,9.33,0,0,0,6.52,1,7.81,7.81,0,0,0,2.85-1.23l1.66-1.38c.66-.57,1.45-1,2.17-1.56a18.84,18.84,0,0,1,5.21-2.25,14.84,14.84,0,0,1,6-.15,17.76,17.76,0,0,1,5.35,2,29.09,29.09,0,0,1,4.28,2.89,7.1,7.1,0,0,0,2.69,1.22,9.77,9.77,0,0,0,3.28.12,7.43,7.43,0,0,0,2.83-1l.27-.19.16-.11.25-.2,1-.8c.67-.54,1.48-1,2.21-1.48a19.19,19.19,0,0,1,5.24-2.08,14.38,14.38,0,0,1,5.88,0,16.56,16.56,0,0,1,5.14,2.08A29.21,29.21,0,0,1,398,777.5Z" transform="translate(-95.28 -189.79)"/><path class="f" d="M565.53,789.69a3.49,3.49,0,0,1,0,7l-10.14.24-5.12.08c-1.73,0-3.48,0-5.11,0-3.29,0-6.67,0-9.95.14-1.67.07-3.43.13-5.15.16s-3.44.06-5.25,0c-.9,0-1.81-.06-2.69-.12l-2.45-.14c-1.57-.07-3.15-.08-4.84-.07l-10.14.07c-1.71,0-3.35,0-5,0l-5.06.16c-3.51.08-6.84,0-10.23.09s-6.71,0-10.29-.09c-1.81-.07-3.46-.2-5.05-.25s-3.28-.07-4.86-.05-3,.12-4.75.28-3.66.25-5.42.25-3.5,0-5.3-.11-3.41-.26-5-.32-3.24-.08-4.95-.1l-5.06,0c-3.39,0-6.78-.09-10.1-.09l-5.1,0-5.13-.1c-1.72,0-3.49-.14-5.13-.22s-3.3-.15-5-.2h0a3.49,3.49,0,0,1,0-7c1.7,0,3.43-.07,5.17-.07s3.34,0,5,0l2,0a8.27,8.27,0,0,0,3.43-2.91,11.05,11.05,0,0,0,1-1.87c0-1.25,0-2.69,0-5.12,0-3.08.1-4.65.2-6.16s.18-2.8.18-5.61,0-4.43,0-5.9,0-2.93,0-5.86-.1-4.13-.21-5.56-.23-3.1-.23-6.2c0-2.82-.07-4.19-.15-5.64s-.18-3.06-.18-6.12.07-4.59.14-6.09.14-2.83.14-5.67c0-3,.05-4.56.1-6s.11-2.86.11-5.73a8.85,8.85,0,0,1,8.8-8.86c3.91,0,5.8-.07,7.81-.15s4.07-.15,8.14-.15a9.23,9.23,0,0,1,9,9.16c0,3-.06,4.56-.11,6s-.11,2.86-.11,5.72,0,4.44,0,5.92,0,2.92,0,5.85,0,4.52-.08,6-.07,2.89-.07,5.78.09,4.16.18,5.6.2,3.08.2,6.16-.1,4.64-.19,6.15-.18,2.81-.18,5.61a46.12,46.12,0,0,0,.28,5.44,52.86,52.86,0,0,1,.33,6.32v.94c0,.56.08,1.12.13,1.71.38,4.46,2.19,6.66,7,6.29,2.92-.22,4.63-.81,5.76-3.8.53-1.42.82-3,1.21-4.49l0-.09c0-.35,0-.71,0-1.11,0-3.22.12-4.86.23-6.45s.2-2.93.2-5.85v-12.3c0-5,3.71-9,8.46-9,4.11,0,6.19.12,8.22.23s3.86.22,7.73.22a8.65,8.65,0,0,1,8.93,8.55c0,3,0,4.46.09,6s.11,3.15.11,6.29a54.38,54.38,0,0,1-.35,6.61,47.81,47.81,0,0,0-.29,5.7c0,.86,0,1.57,0,2.21.64,3.83,2,7.09,6.51,7.51h1.82c3.63-.38,5.38-3.13,6.5-6.46,0-1.2,0-2.65,0-4.73,0-3.48,0-5.22,0-6.95s0-3.42,0-6.83.06-5.3.11-7,.11-3.37.11-6.75,0-5.18,0-6.9,0-3.44,0-6.88a8.23,8.23,0,0,1,8.56-8.45c3.9,0,5.79-.08,7.8-.16s4.08-.17,8.16-.17a8.91,8.91,0,0,1,9,8.78c0,3.58-.11,5.41-.23,7.17s-.2,3.3-.2,6.61a62.76,62.76,0,0,0,.28,6.51,70.75,70.75,0,0,1,.32,7.27c0,3.54-.08,5.34-.15,7.08s-.15,3.35-.15,6.7.08,5,.17,6.67c0,.34,0,.68.05,1a8.11,8.11,0,0,0,3.75,4.47l1.39,0q5.07.07,10.15.22Z" transform="translate(-95.28 -189.79)"/><path class="d" d="M608.64,637.05a3.61,3.61,0,0,1,0,7.19h0c-1.2.1-2.36.2-3.49.33s-2.27.35-3.64.53-2.7.25-4,.31-2.56.08-3.88.08-2.65,0-3.85-.09-2.35,0-3.55,0c-2.35,0-5.11,0-7.61-.11-1.24-.06-2.4-.11-3.6-.13s-2.44,0-3.53,0a29.39,29.39,0,0,0-3.25.21c-1.1.15-2.59.34-4,.4a77.19,77.19,0,0,1-7.87-.21l-3.7-.3-3.66-.27a3.61,3.61,0,0,1,0-7.19h0c2.49-.21,5.15-.23,7.56-.3s5-.09,7.06-.3c1.08-.1,2-.29,3.4-.5a37.16,37.16,0,0,1,4.19-.42c1.4-.06,2.64,0,3.93,0s2.62.05,3.87.11c2.46.13,4.68.15,7.31.18,1.29,0,2.62.09,3.91.18l3.61.25c1.17.07,2.41.11,3.58.14s2.32.05,3.45,0,2.43-.11,3.8-.12S607.34,637,608.64,637.05Z" transform="translate(-95.28 -189.79)"/><path class="d" d="M608.64,657.1a3.6,3.6,0,0,1,0,7.19h0c-1.9.09-3.65.22-5.53.41s-4.06.34-6,.4-3.68.14-5.58.28-4,.22-6,.26c-1,0-2.08,0-3.17,0s-2.22-.18-3.19-.31-1.72-.2-2.56-.25-1.7,0-2.6,0-1.8,0-2.67.07-1.69.12-2.64.22-2.06.21-3.11.26-2.09.08-3.11.08c-2,0-4.06-.06-6-.19s-3.62-.16-5.52-.19-4-.08-6-.2-3.67-.19-5.57-.23c-.88,0-1.75,0-2.57,0s-1.6.12-2.55.25-2.11.26-3.2.32-2.15.07-3.18,0c-1.95-.06-4-.16-5.9-.29l-5.66-.33h0a3.6,3.6,0,0,1,0-7.2c1.94-.1,4-.15,5.9-.14s3.75,0,5.65-.11c.9,0,1.77-.07,2.59-.15s1.6-.21,2.54-.37,2.1-.35,3.19-.44,2.15-.15,3.19-.17c2,0,4,0,6,0s3.68.09,5.57.07,4.07,0,6,.14,3.63.14,5.52.13c.91,0,1.81,0,2.67,0s1.69-.11,2.65-.2,2.06-.19,3.11-.24,2.09-.06,3.11,0,2.09,0,3.18.13,2.22.23,3.17.37,1.72.25,2.56.31,1.71.11,2.6.13c1.9,0,3.68,0,5.58,0s4,0,6,0,3.64.09,5.53,0c1,0,2-.06,3,0S607.65,657.05,608.64,657.1Z" transform="translate(-95.28 -189.79)"/><path class="d" d="M608.66,677.1a3.64,3.64,0,0,1,0,7.2c-1.43.2-2.89.3-4.37.37l-4.15.1c-1.32.05-2.76.05-4,.14a27.64,27.64,0,0,0-3.63.41,33,33,0,0,1-4.74.41c-1.61,0-3,0-4.43-.14-3-.19-5.56-.51-8.35-.86a3.63,3.63,0,0,1,0-7.19h0a81.09,81.09,0,0,1,8.49-.53c1.34-.07,2.8-.07,4-.16a27.83,27.83,0,0,0,3.63-.41,34.5,34.5,0,0,1,4.74-.43c1.6,0,3,0,4.46.16s2.95.27,4.26.43,2.68.31,4.06.51Z" transform="translate(-95.28 -189.79)"/><path class="d" d="M778.34,382.24c-4.8,0-8.92-1.83-12.55-3.45-.77-.34-1.53-.68-2.28-1A39,39,0,0,1,742.08,357c-1.78-4.29-3.6-9.43-3.6-15a40.25,40.25,0,0,1,2.68-15.4c1.72-4.16,4.89-7,7.68-9.52.85-.77,1.65-1.49,2.37-2.21,3.39-3.39,7.12-6.87,12.17-9l.53-.22c4.21-1.75,9-3.73,14.43-3.73,4.64,0,8.52,1.82,11.94,3.42,1,.45,1.85.87,2.72,1.23,4,1.68,9,3.76,13,7.72l.15.15c3.34,3.35,7.13,7.14,9.22,12.18,2,4.87,2.2,10.26,2.2,15.35,0,5.53-1.7,10.38-3.53,14.8-.32.77-.63,1.56-.94,2.36-1.44,3.73-3.08,7.95-6.38,11.25-3.57,3.57-8.21,5.47-12.3,7.14l-1.18.49-1.59.67C787.79,380.36,783.39,382.24,778.34,382.24Zm0-70.29c-3.45,0-7.08,1.51-10.59,3l-.54.22c-3.36,1.39-6.14,4-8.93,6.8-.9.91-1.84,1.75-2.75,2.57-2.2,2-4.27,3.85-5.13,5.92A30.81,30.81,0,0,0,748.48,342c0,3.83,1.36,7.64,2.83,11.19a29,29,0,0,0,6.52,9.31,28.61,28.61,0,0,0,9.51,6.06c.83.35,1.67.72,2.52,1.1,3,1.33,5.8,2.58,8.48,2.58,3,0,6.12-1.33,9.41-2.73l1.68-.71,1.22-.5c3.53-1.45,6.87-2.82,9-5,1.81-1.8,2.94-4.71,4.13-7.79.34-.87.67-1.73,1-2.57,1.66-4,2.77-7.4,2.77-11,0-4.26-.11-8.34-1.43-11.52s-4.24-6.12-7.06-8.94l-.15-.15c-2.38-2.37-5.55-3.8-9.78-5.55-1.08-.45-2.13-.94-3.14-1.41C783.32,313.15,780.75,312,778.34,312Z" transform="translate(-95.28 -189.79)"/><path class="d" d="M231.59,345.78A38.94,38.94,0,0,1,196,292.17c2.06-5,4.07-9.39,7.77-13.09a39.51,39.51,0,0,1,12.69-8.71c4.68-1.94,9.76-3.73,15.14-3.73a39.67,39.67,0,0,1,15.26,3.45,40.07,40.07,0,0,1,12.94,8.62c3.94,3.93,6.09,9.12,7.82,13.28a38.35,38.35,0,0,1,2.83,14.92A41.14,41.14,0,0,1,258.69,334c-3.27,3.27-7,7-12.11,9.1A38.62,38.62,0,0,1,231.59,345.78Zm0-69.14c-3.82,0-7.84,1.53-11.31,3a29.51,29.51,0,0,0-9.45,6.54c-2.41,2.41-3.9,5.74-5.6,9.85a30,30,0,0,0-.09,21.87,27.9,27.9,0,0,0,15.5,15.47,28.06,28.06,0,0,0,11,2.44,28.89,28.89,0,0,0,11.16-1.91c3.31-1.37,6-4.07,8.87-6.93a27.42,27.42,0,0,0,6.2-9.17,28.16,28.16,0,0,0,2.62-10.86,28.5,28.5,0,0,0-2.07-11.09c-1.46-3.52-3.12-7.51-5.65-10a32.92,32.92,0,0,0-21.13-9.14Z" transform="translate(-95.28 -189.79)"/><path class="d" d="M605.55,347.82c-6.63,0-13.34-3.06-18.9-8.62A26.49,26.49,0,0,1,579,320.3c0-6.72,2.82-13.09,8.16-18.43,5.77-5.77,12-8.7,18.43-8.7s12.38,2.88,18.31,8.82c5.62,5.61,8.46,11.77,8.46,18.31s-2.81,12.88-8.35,18.42C617.84,344.84,611.82,347.82,605.55,347.82Zm0-44.65c-3.76,0-7.48,1.89-11.36,5.77-3.47,3.47-5.23,7.29-5.23,11.36a16.56,16.56,0,0,0,4.76,11.83c3.61,3.62,7.93,5.69,11.83,5.69,3.53,0,7.14-2,11.35-6.17,3.6-3.6,5.42-7.42,5.42-11.35s-1.81-7.52-5.53-11.24C612.77,305,609.2,303.17,605.55,303.17Z" transform="translate(-95.28 -189.79)"/><path class="d" d="M122.06,684.24c-8.39,0-15.16-2.33-19.57-6.75-4.58-4.58-7.21-11.71-7.21-19.57a27.2,27.2,0,0,1,26.78-27.06,28.25,28.25,0,0,1,27.06,27.06,27.26,27.26,0,0,1-7.91,19.15C136.58,681.7,129.78,684.24,122.06,684.24Zm0-43.38A17.08,17.08,0,0,0,110.17,646a16.9,16.9,0,0,0-4.89,11.88c0,5.15,1.6,9.82,4.28,12.5,2.46,2.47,6.9,3.82,12.5,3.82,5,0,9.34-1.5,12.08-4.24a17.42,17.42,0,0,0,5-12.08c0-5.59-3.33-9.76-5.32-11.74S127.65,640.86,122.06,640.86Z" transform="translate(-95.28 -189.79)"/><path class="d" d="M703.5,471.21a27.23,27.23,0,0,1-27.32-27.41,27.42,27.42,0,0,1,8.15-19.17c4.41-4.41,10.86-6.64,19.17-6.64,8,0,14.34,2.32,18.92,6.9a26.62,26.62,0,0,1-.2,37.63C718.25,466.48,711.79,471.21,703.5,471.21Zm0-43.22c-5.64,0-9.6,1.21-12.1,3.71a17.59,17.59,0,0,0-5.22,12.1,17.23,17.23,0,0,0,17.32,17.41c4.86,0,9-3.14,11.65-5.77a16.3,16.3,0,0,0,5-11.64A16.58,16.58,0,0,0,715.35,432C712.71,429.33,708.73,428,703.5,428Z" transform="translate(-95.28 -189.79)"/><path class="d" d="M873.3,491.21c-3.68,0-9.06-.5-13.33-4.76s-6.52-8.75-6.52-13.33a20.58,20.58,0,0,1,5.86-14c4.07-4.07,9.86-4.92,14-4.92a18.9,18.9,0,0,1,13.51,5.4,19.26,19.26,0,0,1,5.69,13.51c0,4.75-2.06,9.33-6,13.23C883.27,489.62,878.94,491.21,873.3,491.21Zm0-27c-3.13,0-5.65.73-6.91,2a10.42,10.42,0,0,0-2.94,6.91c0,1.76,1.21,3.87,3.59,6.26.91.9,2.36,1.83,6.26,1.83,3.73,0,5.21-1,6.16-1.93,2-2,3-4.09,3-6.16a9.19,9.19,0,0,0-2.76-6.44A9,9,0,0,0,873.3,464.21Z" transform="translate(-95.28 -189.79)"/><path class="d" d="M678.71,706.27c-6.18,0-10.29-3.38-12.84-5.93s-6.7-6.71-6.7-12.84c0-4.6,2.12-9,6.31-13.23s8.66-6.35,13.23-6.35a19.59,19.59,0,0,1,13.6,6c2.33,2.34,6.25,7.2,6.25,13.61a20.08,20.08,0,0,1-6.1,13.74C689.17,704.54,684.41,706.27,678.71,706.27Zm0-28.35c-1.84,0-3.86,1.12-6.16,3.42s-3.38,4.29-3.38,6.16,1.71,3.7,3.77,5.77,3.81,3,5.77,3c2.95,0,5.32-.74,6.68-2.1a10.13,10.13,0,0,0,3.17-6.67c0-2-1.24-4.46-3.32-6.53A9.7,9.7,0,0,0,678.71,677.92Z" transform="translate(-95.28 -189.79)"/><path class="d" d="M352.24,890.33a20.7,20.7,0,0,1-14.13-5.86c-4-4-4.89-9.92-4.89-14.14,0-5.58,1.84-10.49,5.19-13.83a20,20,0,0,1,13.83-5.93A19.7,19.7,0,0,1,372,870.33c0,4.54-2.13,8.88-6.52,13.27C362.62,886.49,358.1,890.33,352.24,890.33Zm0-29.76a10.17,10.17,0,0,0-6.76,3,9.75,9.75,0,0,0-2.26,6.76c0,3.2.73,5.84,2,7.07a10.82,10.82,0,0,0,7.06,2.93c2.15,0,4.57-2.17,6.2-3.8,2.41-2.42,3.59-4.45,3.59-6.2a9.7,9.7,0,0,0-9.79-9.76Z" transform="translate(-95.28 -189.79)"/><circle class="d" cx="439.28" cy="343.94" r="10.44"/><circle class="d" cx="456.51" cy="677.07" r="10.44"/><circle class="d" cx="844.66" cy="410.07" r="10.44"/><circle class="d" cx="597.51" cy="72.39" r="10.44"/><circle class="d" cx="105.22" cy="220.81" r="10.44"/><path class="d" d="M152.72,563.56c-6,0-10.24-4.21-13-7-4-4-5.94-8.25-5.94-13,0-5.74,1.79-10.69,5-13.93a20,20,0,0,1,13.93-5.5c5.49,0,10.76,2,14.1,5.33a20.25,20.25,0,0,1,5.39,14.1c0,4.68-2.14,9.28-6.17,13.32C163.17,559.74,158.66,563.56,152.72,563.56Zm0-29.44a10.1,10.1,0,0,0-6.86,2.57c-1.33,1.33-2.1,3.83-2.1,6.86,0,2,.93,3.87,3,6,1.81,1.81,4.06,4.06,5.95,4.06,1.67,0,3.72-1.23,6.25-3.76,1.47-1.48,3.24-3.77,3.24-6.25a10.56,10.56,0,0,0-2.46-7A10.45,10.45,0,0,0,152.72,534.12Z" transform="translate(-95.28 -189.79)"/><path class="g" d="M571.52,706.5v0C571.49,706.4,571.51,706.42,571.52,706.5Z" transform="translate(-95.28 -189.79)"/><path class="h" d="M474.62,572.58a26.76,26.76,0,0,1-.62,6.61,20.31,20.31,0,0,1-2.77,6.47,26.87,26.87,0,0,1-4.3,5,55.83,55.83,0,0,1-4.69,3.84,25.31,25.31,0,0,1-5.83,3.3,16.09,16.09,0,0,1-3.69.93,16.28,16.28,0,0,1-2,.12c-.61,0-1.2-.05-1.79-.1a23.53,23.53,0,0,1-6.57-1.73,32.1,32.1,0,0,1-5.61-3,40.34,40.34,0,0,1-4.86-3.86,32.87,32.87,0,0,1-4.21-4.74,23,23,0,0,1-1.81-2.89,25.68,25.68,0,0,1-1.31-3c-.73-2-1.24-3.83-1.74-5.58l-.21-.69a22.46,22.46,0,0,0-2-3c-3.33-4.06-8.38-5.58-13.47-4.93a2.83,2.83,0,0,1-.78,0l-1.12.21a18.76,18.76,0,0,0-3.88,1.15,27.16,27.16,0,0,1-5.38,1.6,3.34,3.34,0,0,0-2.48,1.61,3.42,3.42,0,0,0-.6,2.92c.44,2.16.61,3.27.78,4.35s.32,2,.72,4,.64,2.89.9,3.88.58,2.19,1,4.4a27,27,0,0,1,.57,4.93,17.52,17.52,0,0,0,.41,3.52,18.13,18.13,0,0,0,1,3.41,25.57,25.57,0,0,1,1.37,4.77,16.68,16.68,0,0,1,.27,5.56,8.43,8.43,0,0,0,.14,3c.43,2.17.6,3.27.77,4.35s.32,2,.72,4a5.93,5.93,0,0,0,2.52,2.93,5.09,5.09,0,0,0,3.49.24c2.25-.45,3.41-.64,4.52-.82s2.12-.35,4.23-.78a25.47,25.47,0,0,1,5.23-.55,17,17,0,0,0,3.65-.39,13,13,0,0,0,3.33-1.07,21.33,21.33,0,0,1,5.19-1.66,24.31,24.31,0,0,1,5.25-.55,16,16,0,0,0,3.63-.38,14.19,14.19,0,0,0,3.43-1.06,23.59,23.59,0,0,1,5.11-1.58c2-.4,3-.67,4-1s2.31-.65,4.65-1.12c2.13-.42,3.15-.66,4.24-.9s2.22-.51,4.45-1,3.56-.61,4.72-.76a40.61,40.61,0,0,0,4.07-.65c2.21-.44,3.33-.64,4.44-.84s2.15-.39,4.29-.82a3.9,3.9,0,0,0,2.69-1.71,4.75,4.75,0,0,0,1.11-3.26,29,29,0,0,1-.61-4.83,23,23,0,0,0-.46-3.61,12.14,12.14,0,0,0-1-3.14,20.37,20.37,0,0,1-1.6-5,17.43,17.43,0,0,0-1-3.38,26,26,0,0,1-1.39-4.8,18.24,18.24,0,0,1-.34-5.42,9.57,9.57,0,0,0-.19-3.12,14,14,0,0,0-1-3.23,22.36,22.36,0,0,1-1.52-4.92,32.82,32.82,0,0,1-.65-4.71l0-.31a4.21,4.21,0,0,0-3.07-2.21c-3.9-.46-3.07,5.85-2.73,8A2.76,2.76,0,0,1,474,566c0,.18.06.36.08.54.08.51.14,1.05.2,1.54l.14,1.46C474.53,570.52,474.6,571.54,474.62,572.58Zm182.16-72.05a3.49,3.49,0,0,1,0,7h0c-1.3,0-2.58,0-3.84.1l-3.93.25c-2.79.15-5.46.18-8.23.13-1.39,0-2.81-.11-4.08-.19s-2.51-.1-3.79-.1-2.54,0-3.71.08a28.78,28.78,0,0,0-3.51.47,34.27,34.27,0,0,1-4.36.58c-1.48.09-2.89.09-4.27.08s-2.85-.08-4.24-.21-2.57-.23-3.8-.28-2.45-.05-3.79,0h-4l-7.93,0c-1.36,0-2.76,0-4.18-.08s-2.8-.19-4-.27-2.46-.1-3.73-.1-2.57,0-3.82.06-2.47.13-3.84.22-2.8.16-4.17.18c-2.78,0-5.23,0-7.87.15-1.33,0-2.71.08-4.06.1s-2.68,0-4.08,0-2.84-.07-4.23-.18-2.57-.2-3.8-.24c-2.43-.08-5.14,0-7.78,0l-8,0c-1.38,0-2.79,0-4.24-.1s-2.85-.24-4-.32-2.41-.12-3.66-.14-2.45,0-3.57.11-2.14.27-3.58.52a34.32,34.32,0,0,1-4.5.46c-.73,0-1.5,0-2.14,0l-1.92,0c-1.27,0-2.48.08-3.79.16s-2.76.16-4.14.18-2.74,0-4.08,0l-4.05-.05-3.92-.07c-2.61,0-5.23,0-7.77.05s-5.41.19-8.07.18-5.37,0-8,0H442.47c-2.61,0-5.4,0-8.07-.09-1.67,0-3.26-.08-4.9-.09-.93.34-1.6.69-1.46,1.89a5.55,5.55,0,0,0,1.28,2.58c.61.36,1.21.71,1.79,1.07,1.56,1,3,1.79,4.61,2.64.81.43,1.51.79,2.3,1.17l2.47,1.16a46.34,46.34,0,0,1,5.38,2.85,24.3,24.3,0,0,1,5.11,4.3c1.43,1.57,2.59,3.12,3.7,4.5a37.85,37.85,0,0,0,3.35,3.77c1.24,1.23,2.61,2.51,4,4,.68.71,1.38,1.48,2,2.31a16.75,16.75,0,0,0,7.56,1.57l.85-.17a14,14,0,0,1,10.17,2.32,13.28,13.28,0,0,1,5.39,8.64,34.9,34.9,0,0,1,.66,4.72,25.69,25.69,0,0,0,.51,3.69,13.53,13.53,0,0,0,1,3.23,23.12,23.12,0,0,1,1.52,4.92,18.25,18.25,0,0,1,.34,5.42,9.63,9.63,0,0,0,.19,3.13,16.93,16.93,0,0,0,1,3.37,24.72,24.72,0,0,1,1.39,4.8,12.27,12.27,0,0,0,1,3.14,20.72,20.72,0,0,1,1.61,5,30.12,30.12,0,0,1,.61,4.83,20.69,20.69,0,0,0,.46,3.61c.63,3.17-.18,6.47-2.4,9.81a12.68,12.68,0,0,1-8.24,5.42c-2.22.44-3.33.64-4.45.84s-2.14.39-4.28.82c-2.35.47-3.56.62-4.72.76s-2.05.25-4.07.65-3.14.66-4.23.91-2.22.5-4.46,1c-2,.4-3,.67-4,1s-2.31.65-4.65,1.12a14.7,14.7,0,0,0-3.42,1.06,22.62,22.62,0,0,1-5.12,1.58A24.92,24.92,0,0,1,439,629a16.54,16.54,0,0,0-3.63.37,13.11,13.11,0,0,0-3.33,1.07,21.24,21.24,0,0,1-5.19,1.67,25.45,25.45,0,0,1-5.22.55A17,17,0,0,0,418,633c-2.25.45-3.4.64-4.52.83s-2.12.35-4.23.77a17.39,17.39,0,0,1-3.37.35,11.88,11.88,0,0,1-6.66-1.88c-1.58-1.05-5.34-4-6.24-8.48-.43-2.17-.61-3.28-.78-4.35s-.31-2-.71-4a17,17,0,0,1-.27-5.56,8.43,8.43,0,0,0-.14-3,18.13,18.13,0,0,0-1-3.41,25.57,25.57,0,0,1-1.37-4.77,26.17,26.17,0,0,1-.57-4.93,18.21,18.21,0,0,0-.41-3.52c-.39-2-.64-2.89-.9-3.88s-.57-2.19-1-4.4-.6-3.27-.78-4.34-.32-2-.72-4a12.55,12.55,0,0,1,9.92-14.79,18.44,18.44,0,0,0,3.87-1.15,27.31,27.31,0,0,1,5.39-1.6,35,35,0,0,1,5.36-.7,25.79,25.79,0,0,0,4.21-.55c.54-.11,1-.22,1.38-.33a13.83,13.83,0,0,0,4.54-5.1c0-.73,0-1.47,0-2.23a5,5,0,0,0-1.5-3.07c-1.3-1.1-3.22-1.42-4.83-1.79a2.68,2.68,0,0,1-1-.45l-.9-.28-1.46-.53-2.84-1.08c-1.91-.75-3.63-1.45-5.44-2.12s-3.62-1.33-5.39-1.9-3.77-1.13-5.72-1.82l-11.17-4.11c-3.74-1.39-7.28-2.65-11.1-4-1.88-.69-3.73-1.37-5.63-2.1l-5.51-2.18L351,520.48c-1.9-.73-3.76-1.52-5.51-2.21s-3.6-1.38-5.45-2.07l-5.53-2-.83-.3A120.24,120.24,0,0,0,313,509.11c-1.06.09-2.1.14-3.1.15a38.83,38.83,0,0,1-4.53-.17,40.64,40.64,0,0,1-4.39-.72,23.4,23.4,0,0,0-3.44-.41c-1.18-.06-2.49-.06-3.71,0s-2.34.15-3.67.33-2.94.35-4.41.4-2.9.06-4.38,0a39.86,39.86,0,0,1-4.48-.4c-1.47-.22-2.57-.4-3.77-.49s-2.48-.13-3.7-.11A21,21,0,0,0,266,508c-1.07.16-2.5.54-4.11.76a31.91,31.91,0,0,1-4.6.27,34.56,34.56,0,0,1-4.58-.29c-.79-.11-1.57-.26-2.28-.41s-1.31-.29-1.89-.4a22.14,22.14,0,0,0-3.45-.35l-.92,0h-1l-1.94,0c-1.28,0-2.52.11-3.91.21s-2.87.15-4.28.16H229c-1.32,0-2.61,0-4,.08s-2.78.1-4.17.11-2.76,0-4.17,0-2.84-.08-4.24-.18-2.66-.2-4-.25-2.56-.06-4-.08-2.81-.05-4.23-.14-2.74-.21-4-.27-2.59-.09-3.91-.1h0a3.49,3.49,0,0,1,0-7c1.39,0,2.79,0,4.22.06s2.82.15,4.09.21,2.58.08,3.9.08,2.75,0,4.16,0,2.87.13,4.17.21,2.57.11,3.88.11,2.65,0,4,0,2.61-.08,4-.15,2.79-.12,4.17-.15l4.06-.05c1.3,0,2.55-.1,3.84-.2s2.78-.23,4.21-.29l2.12-.06h2.16a28.58,28.58,0,0,1,4.64.42c.76.13,1.49.29,2.1.41s1.17.22,1.72.29a28.67,28.67,0,0,0,3.54.17,24.22,24.22,0,0,0,3.5-.25c1.07-.15,2.27-.49,3.87-.78a30.17,30.17,0,0,1,4.65-.44c1.49,0,2.9,0,4.43.08s3.08.33,4.3.49a31,31,0,0,0,3.61.27c1.24,0,2.54,0,3.76-.06a35.59,35.59,0,0,0,3.67-.39,43.8,43.8,0,0,1,4.42-.44c1.21-.06,2.37-.07,3.58-.05,4.52-.33,10.82-.76,11.17-5.94a20.16,20.16,0,0,0-.59-5.78c-.64-1.85-1.26-3.63-1.93-5.37-.31-.79-.76-1.92-1.09-2.91s-.65-2-.94-3c-.59-1.93-1.12-3.79-1.71-5.55-.29-.9-.57-1.72-.91-2.63l-1-2.7c-.71-1.82-1.44-3.67-2.15-5.57-.34-1-.68-1.92-1-2.9l-.45-1.31-.47-1.28c-.68-1.71-1.48-3.5-2.25-5.4a40.07,40.07,0,0,1-2-6.16c-.95-4.38-.93-8.37-1.61-11.75l0-.05a3.06,3.06,0,0,1,5.91-1.52,47.58,47.58,0,0,1,1.39,6.14,47.69,47.69,0,0,0,1.22,5.38c1,3.2,2.89,6.51,4.6,10.33.22.48.43,1,.64,1.46l.57,1.46c.34.88.7,1.76,1.07,2.64l2.29,5.4,1.17,2.78c.38.93.78,2,1.12,2.93.7,2,1.29,3.89,1.88,5.72.3.91.6,1.8.91,2.65s.62,1.58,1,2.61c.77,1.93,1.45,3.85,2.11,5.71s1.29,3.68,2,5.26a22.08,22.08,0,0,0,2.45,4.27,32.8,32.8,0,0,0,3.4,3.92c.3.3.65.63.93.88s.57.5.88.74a19.4,19.4,0,0,0,2,1.34,34.54,34.54,0,0,0,4.69,2.23c1.65.64,3.6,1.32,5.42,2l5.58,2c1.85.68,3.73,1.35,5.63,2.08l5.48,2.15.44.17a6,6,0,0,0,2.49-.51,4.27,4.27,0,0,0,1.64-1.38,25,25,0,0,1,8.79-16.89c.24-2-.95-2.47-2.49-3.22a8.92,8.92,0,0,1-1.26-.75l-.76-.39a55.78,55.78,0,0,1-5.16-3.05,50.78,50.78,0,0,0-4.38-2.75,36.73,36.73,0,0,1-5.36-3.23,13.62,13.62,0,0,1-2.81-3c-.21-.3-.4-.61-.58-.93l-.34-.62-.68-1.22a59.93,59.93,0,0,1-2.67-5.38c-.4-1-.78-2-1.1-3a23.45,23.45,0,0,1-.79-3.34,35.57,35.57,0,0,1-.21-6.3,33.3,33.3,0,0,0-.1-4.89c-.2-1.65-.51-3.46-.81-5.26s-.62-3.66-.89-5.56l-.2-1.4-.18-1.24c-.14-.83-.3-1.68-.48-2.54l-1.19-5.34c-.41-1.8-.8-3.88-1.06-5.73s-.5-3.61-.83-5.19a22.51,22.51,0,0,0-.59-2.26c-.1-.32-.27-.77-.42-1.17l-.46-1.23a45.72,45.72,0,0,0-4.61-9.07,41.21,41.21,0,0,0-6.8-7.57l0,0a3.06,3.06,0,0,1,3.8-4.78,43.3,43.3,0,0,1,8.66,8.19A48,48,0,0,1,339,411.28l.58,1.34c.19.46.37.86.57,1.41a29.06,29.06,0,0,1,1,3.06c.52,2,.84,3.91,1.17,5.69s.66,3.34,1.12,5.13.94,3.55,1.37,5.43c.21.94.42,1.9.6,2.89l.26,1.49.21,1.34c.29,1.74.63,3.51,1,5.34.67,1.2,1.34,2.41,2,3.61a24.84,24.84,0,0,0,1.32,2.24c1.28,1.77,1.65,2.21,3.92,1.92,4.52-.58,8.4-5.64,11-9.19a2.72,2.72,0,0,1,1-.82,42,42,0,0,0,6.79-13.8,58.87,58.87,0,0,0,1.8-16.5v-.05a3.05,3.05,0,0,1,6.09-.34c.17,1.68.28,3.37.34,5.08a3,3,0,0,1,.16.82c.34,9.3,1.15,18.33,6.55,25.82l.36.4q1.72,2,3.45,3.83c1.14,1.24,2.3,2.43,3.48,3.55a43.22,43.22,0,0,0,3.64,3.13c1.28,1,2.64,1.95,4.05,2.91s2.89,1.93,4.46,3.08,2.95,2.37,4.2,3.35a15.54,15.54,0,0,0,3.45,2.19,4.88,4.88,0,0,0,.82.29l1.17.36c.75.21,1.49.41,2.2.54s1.42.25,2.26.35,1.83.21,2.84.39a41.22,41.22,0,0,1,5.65,1.51l5,1.64,3.19,1c1.35.06,2.86,0,3.8-.86a16.91,16.91,0,0,1,3.24-7.15c.83-1.48,1.71-3,1.1-4.3l-1.28-.8c-.72-.48-1.35-.89-2-1.27s-1.28-.73-2-1.1l-1-.53-1.11-.55c-1.54-.76-3.14-1.61-4.65-2.5s-2.76-1.63-4.18-2.37l-4.38-2.19c-2.93-1.45-6-2.9-9-4.44h0a3.48,3.48,0,0,1,1.59-6.58,5.2,5.2,0,0,0,.81-.3,1.63,1.63,0,0,0,.37-1.85l-.34-1.12c-1.36-2.51-2.71-5.08-3.94-7.75-1-2.09-1.7-4.21-2.42-6.26-.64-1.84-1.25-3.58-2-5.21-1.3-2.91-2.78-5.83-4.2-8.65l-1.09-2.16c-.45-.9-.89-1.8-1.33-2.7a75.6,75.6,0,0,0-4.15-7.74,42.24,42.24,0,0,0-5.6-6.51c-.67-.68-1.34-1.36-2-2.05l-.28-.3a5.84,5.84,0,0,0-3.15-1.7c-1.89-.18-3.46,1.45-4.75,2.63a2.81,2.81,0,0,1-1,.59c-2.59,2.32-5.8,3.38-8.67,4.32l-.45.14-1.46.5a26.23,26.23,0,0,1-8.75,1.89c-.24,0-.48,0-.73,0a41.21,41.21,0,0,1-10.81-2.12,32.94,32.94,0,0,1-7.76-4.1l-1.76-1.13c-.81-.51-1.74-1-2.73-1.49a22.13,22.13,0,0,1-6.58-4.45,38.32,38.32,0,0,1-6.52-9.23,28.54,28.54,0,0,1-1.16-2.76c-.41-.45-.82-.95-1.28-1.48-1.1-1.28-3.93-.84-6.27-.36-.7.23-1.37.48-2.13.77-1.65.62-3.27,1.27-4.86,2s-3.12,1.44-4.61,2.25c-.76.4-1.46.8-2.14,1.23s-1.37.88-2,1.37c-1.36,1-2.7,2-4.05,3.17l-2.06,1.74c-.75.64-1.23,1.06-1.81,1.64-2.26,2.19-4.35,5.07-6.88,8a51.64,51.64,0,0,1-4.18,4.27c-1.34,1.26-2.57,2.42-3.62,3.59a48.67,48.67,0,0,0-5.43,8.37c-1.81,3.17-3.36,6.41-5,9.61L267,418.6c-.85,1.7-1.71,3.34-2.55,4.94s-1.64,3.16-2.36,4.72l-2.16,5-2.15,5-.53,1.24q-.22.51-.42,1.05c-.27.73-.52,1.52-.76,2.34-.48,1.64-.92,3.45-1.54,5.39a29.5,29.5,0,0,1-1.11,2.95c-.41.94-.86,1.84-1.3,2.71-.91,1.73-1.83,3.33-2.64,4.85a32.39,32.39,0,0,0-2,4.53c-.6,1.61-1.14,3.3-1.71,5.05-.29.88-.59,1.78-.92,2.7s-.72,1.88-1.08,2.74-.76,1.77-1.2,2.68-1,1.85-1.43,2.66-.8,1.4-1.15,2.13-.67,1.51-1,2.31l0,0a3.48,3.48,0,0,1-6.52-2.45c.32-.92.64-1.84,1-2.79s.9-2,1.33-2.76.75-1.46,1.08-2.23.64-1.55,1-2.37.59-1.58.84-2.4.5-1.67.76-2.54c.5-1.74,1-3.56,1.66-5.4a40.35,40.35,0,0,1,2.3-5.55c.86-1.73,1.72-3.33,2.47-4.87.37-.77.71-1.52,1-2.26s.52-1.42.76-2.21c.48-1.56.88-3.32,1.39-5.19.26-.94.55-1.91.89-2.91.18-.5.37-1,.58-1.5l.53-1.29,2.1-5.12,2.12-5.12c.79-1.78,1.63-3.48,2.47-5.14s1.68-3.26,2.45-4.83l2.46-5c1.67-3.33,3.26-6.7,5.07-9.91.9-1.63,1.82-3.28,2.84-4.95.52-.84,1.06-1.68,1.66-2.53s1.31-1.74,2-2.53c2.8-3.14,5.7-5.41,7.63-7.76,2.22-2.62,4.44-5.7,7.42-8.64.72-.71,1.62-1.5,2.27-2l2.13-1.81c1.45-1.21,3-2.43,4.6-3.59q1.23-.87,2.52-1.68c.87-.55,1.77-1.05,2.62-1.51,1.74-.94,3.5-1.78,5.26-2.55s3.54-1.49,5.33-2.16c.86-.32,1.85-.67,2.8-1s1.91-.57,2.85-.81c3.77-1,7.3-1.66,10.81-2.51,1.56-.37,3.15-.74,4.77-1.08a20.77,20.77,0,0,0,7.08-5.37,203.78,203.78,0,0,0,9.85-19.52,11.69,11.69,0,0,0,.11-1.77,15.93,15.93,0,0,0-2.38-7.32,58.78,58.78,0,0,1-9.34-47.44c.43-2.92.47-6.05-1.49-8.28a20.78,20.78,0,0,0-4-3A32.83,32.83,0,0,1,317.68,239c-3.93-15.23,2.13-32.13,15.09-42,11.61-8.87,30.82-9.58,44.7-1.63,10,5.73,16.24,15.17,18,26.83,0,0,0,0,0,0,1.56,4.23,3.42,9.29,8.51,9.93a13.34,13.34,0,0,0,2.61,0c28-8.84,58-3.08,74.11,14.58,11.16,12.23,13.41,27.95,6.19,43.13a34.35,34.35,0,0,1-27.12,19.86c-1.81.63-3.62,1.28-5.39,2-4.71,1.9-7.28,5.44-9.92,9.59a3.76,3.76,0,0,1-.51.65c-.76,1.26-1.52,2.52-2.37,3.73l-1.93,2.87-2.07,2.79-1,1.39L435.47,334c-.74.89-1.47,1.78-2.23,2.66-1.58,1.7-3.13,3.44-4.82,5a84.78,84.78,0,0,1-10.76,8.94,72.71,72.71,0,0,1-12.34,6.86,19.69,19.69,0,0,1-1.84.72,17.94,17.94,0,0,1-2,.57,21.85,21.85,0,0,1-4.1.55,20.43,20.43,0,0,1-8.11-1.39,21.51,21.51,0,0,1-2.56-1.23c-2.5-.15-4.83.12-6.33,2.45l-.21.44c-.46,1.75-.7,3.46.49,5a14.67,14.67,0,0,0,4.1,3.15,2.69,2.69,0,0,1,.66.58c1.09.61,2.13,1.23,3.09,1.83a52.19,52.19,0,0,1,10.09,8.6c.61.65,1.25,1.3,1.88,1.94a50.93,50.93,0,0,1,6.7,7.88,83.19,83.19,0,0,1,4.65,8.64c.43.88.85,1.75,1.29,2.62l1.08,2.14c1.47,2.91,3,5.92,4.38,9,.88,2,1.58,4,2.25,5.9s1.32,3.77,2.11,5.48c1.44,3.14,3.14,6.26,4.79,9.28l.21.39c2.14,3.7,4.28,7.47,7.26,10.57a35.32,35.32,0,0,0,5.38,4.37l1.66.78a51.91,51.91,0,0,1,4.81,2.37c.8.46,1.58.95,2.26,1.37s1.3.79,2,1.15c1.31.71,2.68,1.33,4.23,2l9.14,4.09c1.58.74,2.88,1.34,4.25,1.83.67.25,1.34.45,2.11.67s1.67.48,2.58.79a44.72,44.72,0,0,1,5.11,2.12,39.32,39.32,0,0,1,4.88,2.74,36.27,36.27,0,0,0,3.88,2.37c.67.34,1.32.65,2.08,1l2.35,1.12c1.57.77,3.14,1.63,4.5,2.33.69.35,1.39.69,2.11,1l2.1,1c.29.1.53.2.84.3s.62.2.95.27c.64.17,1.31.3,2,.41a25.16,25.16,0,0,0,4.2.25,34.18,34.18,0,0,0,4.35-.41c.36-.07.73-.12,1.09-.2l1.16-.24,2.52-.51c1.7-.34,3.46-.63,5.16-.87s3.24-.45,4.81-.73c.78-.13,1.56-.28,2.35-.44l2.45-.51a21.39,21.39,0,0,1,6.32-.34,18.54,18.54,0,0,1,6.3,1.81,19.32,19.32,0,0,1,2.78,1.67l2,1.49c.61.44,1.19.82,1.81,1.2l2.19,1.32a50,50,0,0,1,4.44,3.19l2,1.57c4.05,2.09,7.66,5,12.42,5.59,3.55.46,7,.46,10.37.91a29,29,0,0,1,3.77-.46l1.48-.06,1.37,0a17.35,17.35,0,0,0,2-.16,14.13,14.13,0,0,0,3.84-1.09,11.54,11.54,0,0,0,3.13-2.05,9.93,9.93,0,0,0,1.19-1.33c.15-.25.35-.47.48-.74s.28-.45.48-.87c.37-.74.71-1.46,1-2.18s.6-1.41.9-2.2.64-1.7,1-2.6.78-1.76,1.19-2.6l1.16-2.32c.35-.73.67-1.43,1-2.15s.56-1.46.9-2.34.7-1.8,1.1-2.68.81-1.72,1.23-2.55l1.2-2.35L614,456.1l2.44-4.73c.46-.85.94-1.71,1.49-2.56s1.16-1.67,1.66-2.35.91-1.26,1.31-1.89.78-1.31,1.16-2c.78-1.48,1.72-3.25,2.75-4.85s1.88-2.81,2.67-4.24,1.6-2.89,2.19-4.25c.31-.69.56-1.36.83-2.16s.6-1.75,1-2.68a52.33,52.33,0,0,1,2.45-5c.8-1.49,1.42-2.85,2.15-4.53s1.62-3.37,2.5-4.94a3.49,3.49,0,0,1,6.23,3.13v0c-.71,1.56-1.34,3-1.92,4.59s-1.28,3.44-2,5.09l-1.1,2.36c-.32.73-.62,1.44-.87,2.14s-.47,1.42-.73,2.29-.58,1.86-.94,2.78a51.67,51.67,0,0,1-2.41,5.18c-.87,1.66-2,3.4-2.82,4.71s-1.51,2.69-2.33,4.33c-.43.84-.9,1.7-1.41,2.56s-1.1,1.72-1.63,2.45-.94,1.34-1.33,2-.76,1.29-1.13,2l-2.35,4.62-2.38,4.67-1.18,2.33c-.36.74-.72,1.47-1,2.18s-.6,1.42-.89,2.18-.59,1.66-1,2.56-.76,1.8-1.17,2.65L613,479.05c-.35.73-.69,1.45-1,2.17s-.57,1.44-.89,2.29-.68,1.78-1.07,2.66-.79,1.74-1.21,2.57c-.17.37-.49.93-.77,1.43s-.63,1-.95,1.46a18.91,18.91,0,0,1-2.3,2.58c-.45.42-.91.8-1.39,1.17-1.25,1.23-3,3.16-2.62,4.12.19.47,1.07.81,2.12,1.06l2.32,0c1.32,0,2.74,0,4.16.09s2.88.23,4.12.35,2.43.19,3.69.22,2.52,0,3.68,0a26.74,26.74,0,0,0,3.52-.4,34.91,34.91,0,0,1,4.37-.5c1.48-.07,2.89-.05,4.24,0s2.78.09,4.15.2,2.59.2,3.85.24c2.52.1,5.15.11,7.65,0,1.25-.05,2.61-.14,4-.18S655.42,500.52,656.78,500.53ZM546.44,490.12c1.43-.47,2-1,1.31-2.52a5,5,0,0,0-.66-1l0,0c-.81-.48-1.62-1-2.37-1.54l-2-1.48a10.12,10.12,0,0,0-1.51-.89,9.84,9.84,0,0,0-3.28-.91,12.2,12.2,0,0,0-3.63.21l-2.46.51-2.56.49c-1.72.31-3.48.55-5.09.78s-3.13.48-4.71.79l-2.37.49-1.3.27-1.37.25a41.63,41.63,0,0,1-5.61.53,32.37,32.37,0,0,1-5.78-.37,26.93,26.93,0,0,1-2.91-.62c-.49-.12-1-.28-1.45-.43s-1-.37-1.52-.56l-1.26-.57-1.18-.56c-.79-.37-1.6-.77-2.38-1.18-1.6-.83-3-1.59-4.38-2.3l-2.16-1.05c-.74-.36-1.6-.77-2.41-1.19a45.24,45.24,0,0,1-4.65-2.87,29.71,29.71,0,0,0-3.83-2.18,39.2,39.2,0,0,0-4.11-1.75c-.67-.23-1.37-.44-2.2-.68s-1.76-.54-2.65-.87c-1.77-.64-3.49-1.46-4.93-2.15l-.94-.44c-2.54-.72-5.17-.61-7.11,1.69a2.7,2.7,0,0,1-.61.53,8.29,8.29,0,0,0-2,4.63c.55,2.93,3.42,4.65,6.19,5.91l2.85,1c1.69.59,3.28,1.15,4.91,1.7,3.22,1.06,6.72,2.2,10,3.34l4.92,1.65c1.61.53,3.14,1,4.67,1.34l2.5.54c.91.19,1.86.42,2.78.67,1.82.49,3.63,1.1,5.18,1.6a23.65,23.65,0,0,0,4.3,1c1,.13,3,.05,4.66,0l5.23-.15,2.69,0,2.58,0c.81,0,1.61,0,2.39-.1s1.54-.14,2.42-.24,1.85-.21,2.81-.28,1.92-.09,2.85-.11c1.86,0,3.68,0,5.6.11.95.06,1.9.15,2.75.23s1.62.14,2.42.18c1.59.08,3.3.08,4.92.05.71,0,1.37-.05,2-.1C543.47,491,545,490.6,546.44,490.12Zm-63.53,10.22c1.22-.65,2.08-1.53,1.07-2.57-.69-.72-2.16-.86-3-1.35l-.35-.23c-1.42-.37-2.81-.78-4.12-1.21l-5-1.68c-3.34-1.17-6.5-2.19-9.93-3.33-1.68-.56-3.39-1.16-5-1.73s-3.24-1.11-4.89-1.64a42.19,42.19,0,0,1-5.45-2.16c-.9-.44-1.71-.89-2.4-1.25s-1.35-.66-2-.95-1.43-.56-2.2-.81l-2.45-.81-5-1.63-5-1.63a30.88,30.88,0,0,0-4.48-1.21c-.71-.13-1.44-.22-2.35-.33s-1.94-.25-2.93-.45-2-.45-2.89-.71l-1.35-.41a15.55,15.55,0,0,1-1.64-.59A24,24,0,0,1,406,470.3c-1.51-1.19-2.78-2.3-4-3.2-2.54-1.85-5.72-3.8-8.66-6.1a52.76,52.76,0,0,1-4.32-3.71c-1.36-1.29-2.63-2.61-3.87-3.94s-2.41-2.66-3.58-4c-.74-.83-1.55-1.74-2.34-2.68a5,5,0,0,0-2.94-1,6.08,6.08,0,0,0-3.93,1.76l-.07.09c-3.53,5.21-7.7,9.61-10.73,14a27.92,27.92,0,0,0-3.4,6.46c-.41,2.91-.08,5.84,2.15,7.88,1.57,1.43,3.24,2.48,4.77,3.79.74.43,1.5.86,2.31,1.28a43.55,43.55,0,0,0,4.57,2.15c1.53.6,3.62,1.38,5.39,2.26s3.44,1.77,5.13,2.7,3.33,2,4.83,2.8c.76.43,1.54.86,2.33,1.28l2.45,1.31c.88.47,1.79,1,2.69,1.5a74.39,74.39,0,0,0,22.95,4.94l1,0c.7,0,1.41.05,2.1.09,1.43,0,2.86,0,4.3,0a2.38,2.38,0,0,1,1.34.31h.12c2.49,0,5.37,0,8,.09s5.13.1,7.81.1l7.94,0,8,0c2.68,0,5.26.06,7.9.06s5.07-.06,7.82-.16,5.43-.06,8.12,0Zm-17.58,76.81a17.85,17.85,0,0,0,.39-4.39c0-.79-.06-1.62-.13-2.47l-.13-1.29c0-.43-.09-.81-.15-1.21a38.34,38.34,0,0,0-2.79-9.54c-1.52-3.76-2.49-7.06-4-9.55s-3.94-4.7-6.69-7.44c-.69-.69-1.38-1.39-2.09-2.2s-1.31-1.56-1.91-2.31c-1.19-1.5-2.25-2.91-3.3-4.06a15.44,15.44,0,0,0-3.33-2.83,41.37,41.37,0,0,0-4.39-2.33l-2.55-1.2c-.87-.42-1.81-.91-2.62-1.34-1.67-.89-3.42-1.88-5-2.85s-3-1.76-4.62-2.61c-.76-.4-1.67-.87-2.54-1.36s-1.77-1-2.64-1.61-1.67-1.17-2.36-1.65-1.34-.92-2.05-1.34c-1.39-.82-3-1.66-4.48-2.35-.75-.35-1.48-.66-2.26-1s-1.67-.6-2.64-1l-.73-.31a4.26,4.26,0,0,1-2.4-1.07c-.8-.39-1.59-.79-2.34-1.18-1.67-.88-3.41-1.85-5-2.83s-3-1.79-4.63-2.63l-1-.54a19.1,19.1,0,0,0-6.28-1.94c-3.62-.34-6.16,1.41-9.11,3a15.87,15.87,0,0,0-3.9,10.45,7.26,7.26,0,0,0,2.34,4.2A41.44,41.44,0,0,0,374,519.3l2.38.85,5.59,2.06,11,4.06c1.76.64,3.5,1.15,5.53,1.83s3.88,1.38,5.75,2.09,3.8,1.53,5.55,2.24l2.68,1.05,1.32.49a6.09,6.09,0,0,0,.82.23,9.29,9.29,0,0,0,2,.2h.17a22.91,22.91,0,0,0,7.33-1.8,3.48,3.48,0,0,1,5.83,3.33c-1,4-2.72,7.42-3.19,10.27a17.74,17.74,0,0,0-.08,4.52c.13,1.62.43,3.36.7,5.26l.19,1.47.15,1.45c.09.83.19,1.66.33,2.49a45.94,45.94,0,0,0,1.11,5q.36,1.24.75,2.49l.84,2.68c.55,1.78,1.06,3.48,1.64,5a17.91,17.91,0,0,0,.93,2,13.06,13.06,0,0,0,1.16,1.78,24.74,24.74,0,0,0,3.19,3.46,32.31,32.31,0,0,0,3.86,3,23.81,23.81,0,0,0,4.11,2.21,14.7,14.7,0,0,0,4.11,1.07c.33,0,.65,0,1,0s.53,0,.79,0a7.5,7.5,0,0,0,1.66-.45,16.4,16.4,0,0,0,3.74-2.19,46.82,46.82,0,0,0,3.86-3.2,18.76,18.76,0,0,0,2.9-3.36A11.21,11.21,0,0,0,465.33,577.15ZM434.43,320.3a13,13,0,0,0,.47-9.28c-1.76-4.77-7.86-6.14-11.27-9.7A53.9,53.9,0,0,1,412.25,292a24.7,24.7,0,0,1-2.44-1.94c-2.33-2.12-3.65-4.15-7-4.6a22.74,22.74,0,0,0-7.06.61,3.65,3.65,0,0,1-1.88-.14,22.81,22.81,0,0,1-2.86-.13,23.93,23.93,0,0,1-7-1.92h0l-.28-.14a9.44,9.44,0,0,0-6.8-1.09,7.41,7.41,0,0,0-5,4,7.13,7.13,0,0,0,.44,6.47,18,18,0,0,0,5.88,6.1l0,0a3.48,3.48,0,0,1-3.29,6.09c-2.88-.65-4.83-.52-6.47,2.15q-.46.76-.9,1.53c-9.26,28.49-21.22,46.69-21.81,47.57a15,15,0,0,1-4,3.59c-1.77.27-3.55.62-5.34,1l-.59.18a4.52,4.52,0,0,0-3.21,4.73c.17.41.34.81.53,1.19a31.3,31.3,0,0,0,5.34,7.52,16.89,16.89,0,0,0,4.64,3c1.08.55,2.19,1.11,3.28,1.79l1.85,1.19a27.2,27.2,0,0,0,6.12,3.32,34.44,34.44,0,0,0,9,1.79,19.07,19.07,0,0,0,6.88-1.5l1.57-.53.45-.15a33.08,33.08,0,0,0,4.14-1.56c1.64-1.32,3-3,2.88-5.19a3.29,3.29,0,0,0-1-2.48c-.46-.22-.93-.43-1.4-.63a7.89,7.89,0,0,0-4.48.94,2.65,2.65,0,0,1-1.69.25,3.47,3.47,0,0,1-3.25-4.75l4.21-10.82a37.44,37.44,0,0,0-1.46-21.32c-.21-.39-.41-.78-.61-1.18a3.49,3.49,0,0,1,6.14-3.3l0,0a52.63,52.63,0,0,0,7.26,10,34.57,34.57,0,0,0,4.42,4c.78.59,1.59,1.13,2.41,1.63a12.67,12.67,0,0,0,2.27,1.07,12.68,12.68,0,0,0,7.39.3c.4-.1.8-.23,1.19-.37s.73-.28,1.23-.52c1.55-.71,3.07-1.51,4.57-2.36l.07-.09a33.36,33.36,0,0,0,13.2-9.64c.83-.76,1.64-1.53,2.43-2.32,1.52-1.45,2.9-3.05,4.32-4.6l2-2.44,1-1.22.95-1.27Q432.55,323.15,434.43,320.3Zm-5.49-47.91,0-.14h-.06Z" transform="translate(-95.28 -189.79)"/><path class="h" d="M641,779.6c-.15-.56-.3-1.05-.42-1.46s-.2-.73-.28-1.08a13.87,13.87,0,0,1-.24-2.27v-.07a3.49,3.49,0,0,0-7,.07,21.7,21.7,0,0,0,.18,3.45c.09.61.21,1.21.34,1.74l.31,1.31a10.76,10.76,0,0,1,.22,2.16c0,.76,0,1.71-.09,2.53s-.16,1.58-.31,2.53a28.38,28.38,0,0,0-.37,3.2c0,.54-.05,1.07-.06,1.58l0,.69,0,.57a18.93,18.93,0,0,1-.33,2.33,28.35,28.35,0,0,1-1.49,4.8,48.51,48.51,0,0,1-2.22,4.76,22.32,22.32,0,0,1-2.69,3.92c-.25.27-.52.56-.76.77a6.93,6.93,0,0,1-.76.64,13.05,13.05,0,0,1-1.85,1.17,50.8,50.8,0,0,1-4.84,2.12c-.95.39-1.7.69-2.53,1s-1.6.53-2.38.74a18.14,18.14,0,0,1-4.61.63c-.84,0-1.82,0-2.7,0s-1.78-.07-2.69-.13c-1.82-.15-4-.29-6-.31a49.4,49.4,0,0,0-6.32.24c-1.11.13-2.15.32-3,.45s-1.62.21-2.46.26-1.68.07-2.6.07h-2.91c-3.94,0-7.58.09-11.49.08s-7.74.16-11.4.1c-.86,0-1.69,0-2.48-.14s-1.53-.22-2.51-.4-2.12-.37-3.23-.47-2.2-.16-3.24-.16-2.08,0-3.16.06-2.2.16-3.26.31a35.52,35.52,0,0,1-5.22.58c-.43,0-.87,0-1.31,0h-1.44l-2.93,0-5.72.12c-1.88,0-3.78,0-5.58,0-.9,0-1.78-.07-2.71-.13s-1.95-.13-3-.18c-2.06-.08-4-.1-6-.06s-4.36.28-6.07.47a47.51,47.51,0,0,1-5.28.2c-1.89,0-3.67-.05-5.57-.13s-4-.14-5.92-.15-3.68,0-5.47-.14-4-.29-6-.31-4,0-6,.06c-1,0-2,.11-3,.16s-1.81.1-2.72.12l-5.74.07c-1,0-2,.07-3,.13l-2.79.15c-1.8.07-3.63.07-5.56.06l-11.44-.06a21.44,21.44,0,0,1-2.35-.15,19.22,19.22,0,0,1-2.3-.47A29.33,29.33,0,0,0,423,817a27.4,27.4,0,0,0-3.41-.27c-1.13,0-2.06,0-3.11,0s-2.1.09-3.14.18c-2.13.2-3.66.38-5.46.42s-3.72,0-5.62,0h-8.63c-1,0-2,0-3.06.06s-2.12.11-3.14.22-1.91.21-2.76.27-1.71.11-2.61.12l-1.35,0c-.43,0-.87,0-1.29,0a23.51,23.51,0,0,1-2.43-.18c-.77-.09-1.59-.26-2.65-.44s-2.21-.32-3.3-.4-2.17-.09-3.21-.09-2.08,0-3.15.11-2.21.2-3.2.35-1.8.27-2.63.34-1.66.12-2.54.14a44.4,44.4,0,0,1-5.21-.17l-2.81-.33c-1.06-.12-2.15-.2-3.19-.23s-2.12,0-3,0h-2.82l-5.75-.12c-2,0-3.86,0-6,0-1,0-2.12.12-3.16.24s-1.94.23-2.79.31-1.7.13-2.58.15-1.79,0-2.78,0l-2.78,0a4.23,4.23,0,0,1-1.05-.43c-2.19-1.25-3.16-3.48-3.58-5.9,0-2.69.09-4,.18-5.43s.2-3.07.2-6.14-.11-4.65-.22-6.17-.2-2.77-.2-5.54a27.85,27.85,0,0,1,.41-5.17,35.58,35.58,0,0,0,.52-6.53c0-3-.06-4.54-.11-6s-.1-2.84-.1-5.69a35.58,35.58,0,0,0-.53-6.54,27.64,27.64,0,0,1-.41-5.16,17.58,17.58,0,0,1,.58-4.85,26,26,0,0,0,.8-6.85c0-5.53-2.73-10.2-4.93-14l-.43-.74a29.33,29.33,0,0,0-10.61-11c-3.81-2.22-8.94-4.76-14.82-4.76a45.93,45.93,0,0,0-7,.48,37.33,37.33,0,0,1-5.84.4,26.21,26.21,0,0,1-5.65-.52,35.14,35.14,0,0,0-7.22-.65,34.15,34.15,0,0,0-7.24.68,25.21,25.21,0,0,1-5.62.53c-3.18,0-4.77,0-6.36-.05s-3.25,0-6.5,0-5.06.11-6.71.22c-1.18.07-2.31.15-4.08.18-3.33-.25-6.63-.5-9.06-3-3.66-3.77-4-9.39-4.25-14.4v0a51,51,0,0,0,.27-5.18c0-1.57,0-3,.15-4.43s.31-3.18.37-4.9.06-3.34,0-5-.15-3.46-.26-5-.13-2.92-.13-4.46a34.93,34.93,0,0,0-.32-5.36c-.13-.93-.29-1.78-.41-2.46s-.2-1.31-.25-2-.08-1.34-.08-2,0-1.51,0-2.25c0-1.52.1-2.9.21-4.54s.15-3.38.16-5v-6.36c.75-5.63,2.29-12.45,7.86-13.72a53.93,53.93,0,0,1,6-.8l4.44-.06h2.76c.93,0,1.93,0,2.91,0,2,0,4-.2,5.74-.29s3.44-.11,5.36-.12,4-.07,5.84-.2,3.52-.17,5.34-.17,3.59,0,5.32.11,3.79.27,5.75.3l2.87,0c.9,0,1.77,0,2.64,0s1.7.09,2.61.17,1.92.15,2.93.2,2,.08,3,.09,2,0,3.09-.06a23.46,23.46,0,0,0,3.37-.41c1.14-.22,2.16-.51,2.93-.69a15.75,15.75,0,0,1,2.17-.39c.72-.08,1.53-.1,2.34-.11s1.68,0,2.47.07a22.07,22.07,0,0,1,2.35.28c.81.14,1.82.34,2.91.48s2.18.22,3.22.25c.52,0,1,0,1.54,0h1.37c.89,0,1.76,0,2.62.07s1.71.11,2.67.18,2,.14,3,.18,2,0,3,0,2,0,3.08-.08a29.86,29.86,0,0,0,3.23-.37c1.06-.18,1.94-.37,2.71-.49a30.07,30.07,0,0,1,4.93-.3c1.89,0,3.88-.08,5.76-.18s3.59-.17,5.43-.19,3.59,0,5.32.07,3.77.27,5.74.28,3.85,0,5.76-.09,3.83-.18,5.62-.25,3.65-.1,5.5-.16,3.66-.06,5.54-.08,3.79-.06,5.67-.13a3.49,3.49,0,0,0,0-7h0l-5.53-.23c-1.84-.09-3.77-.18-5.65-.24s-3.78-.08-5.69-.08-3.77,0-5.58,0-3.68,0-5.43-.11-3.4-.23-5.43-.39-4-.18-5.88-.19-3.88,0-5.76.09-3.59.09-5.43.09a36.94,36.94,0,0,0-6.23.37c-1.07.16-2,.36-2.8.48a20,20,0,0,1-2.33.25c-.81,0-1.62.06-2.52,0s-1.77,0-2.64-.06-1.7-.1-2.61-.18-1.91-.16-2.92-.21-2-.09-3-.1l-1.42,0c-.42,0-.85,0-1.25,0a22.26,22.26,0,0,1-2.37-.2c-.76-.1-1.58-.27-2.6-.45s-2.14-.32-3.21-.4-2.1-.1-3.12-.11a30.5,30.5,0,0,0-3.25.15,24,24,0,0,0-3.34.56c-1.05.25-1.83.47-2.52.59a15,15,0,0,1-2.19.25c-.76,0-1.58,0-2.5,0s-1.76,0-2.61-.08-1.71-.11-2.66-.19-2-.14-3-.18-2-.06-3-.06l-2.72,0c-1.78,0-3.42-.16-5.43-.28s-4-.13-5.87-.12-4,.07-5.85.19-3.52.18-5.35.19-3.85,0-5.82.14-3.68.29-5.44.32c-.89,0-1.76,0-2.7,0l-2.83,0-5.61.12h-1.06c-.6-.13-1.21-.25-1.85-.34-2.41-.35-5.59-.38-6.81-2.89-1.3-2.68-.86-5.73-1.59-8.59v-1.12l0-4.76c0-.83,0-1.51,0-2.21s.07-1.39.14-2a21,21,0,0,1,.76-3.82,18,18,0,0,1,.65-1.81l.9-2.18c1.14-2.79,2.34-5,3.81-6.27s4.05-2.3,7.15-3.51c.74-.3,1.67-.7,2.42-1.06l2.17-1.06a18.62,18.62,0,0,1,3.52-1.4,6,6,0,0,1,1.38-.19h1l1,0c.66,0,1.29.11,1.92.21s1.3.25,2.14.42,1.8.34,2.74.45,1.85.15,2.75.19h2.57c.83,0,1.67,0,2.53-.08s1.72-.11,2.53-.19L249,570c1.45-.1,2.89-.12,4.47-.12s3.29,0,4.94-.12,3.11-.17,4.64-.2l4.74-.05c1.65,0,3.43-.14,5-.26s2.94-.18,4.47-.2,3,0,4.45.07c.72,0,1.42.09,2.17.17s1.6.16,2.47.23c1.73.13,3.48.16,5.06.16a33.69,33.69,0,0,1,4.22.23c1.35.17,3.21.47,5,.57s3.45.08,5.08,0,3.39-.13,5-.25,3-.19,4.51-.21,3.11,0,4.65,0c3.05,0,6.37.11,9.56.07,1.62,0,3.29-.07,5-.18s3.14-.25,4.64-.31,3.07-.1,4.53-.09a41.33,41.33,0,0,1,4.38.27,47.53,47.53,0,0,0,5.1.29c1.71,0,3.27-.05,4.91-.11,3.33-.15,6.28-.38,9.42-.45a3.49,3.49,0,0,0,0-7h0c-1.6-.05-3.22-.08-4.86-.07s-3.17.06-4.7,0-3.13,0-4.59-.09-2.83-.2-4.37-.41a49.13,49.13,0,0,0-5.09-.45c-1.7-.06-3.29-.07-5-.05s-3.37.12-4.85.18-3,.06-4.53,0c-3.15,0-6.16-.12-9.44-.19-1.63,0-3.2-.05-4.85,0s-3.37.06-5,.17-3,.16-4.53.16-3,0-4.41-.08-2.65-.3-4.45-.54a43.1,43.1,0,0,0-5.25-.32c-1.59,0-3,0-4.43-.15-.72,0-1.44-.13-2.26-.22s-1.7-.16-2.56-.21c-1.74-.1-3.41-.11-5.05-.1s-3.39.08-5,.21-3,.2-4.51.22l-4.76,0c-1.64,0-3.35.12-4.85.19s-3,.08-4.56.08-3.31,0-5,.13c-.85,0-1.7.12-2.47.19s-1.48.12-2.2.15-1.47,0-2.21.06h-1.14l-1,0c-.69,0-1.36-.06-2-.14a19.4,19.4,0,0,1-2-.33c-.7-.14-1.58-.34-2.52-.5s-1.88-.25-2.8-.31l-1.35-.06h-1.39a14.63,14.63,0,0,0-3.32.44,27.05,27.05,0,0,0-5.32,2l-2.11,1c-.67.32-1.2.55-1.92.83-1.4.56-3,1.12-4.61,1.88a21.27,21.27,0,0,0-5.1,3.15,19.3,19.3,0,0,0-3.93,4.8,37.29,37.29,0,0,0-2.35,4.83l-.91,2.21c-.34.82-.68,1.76-.95,2.66a28.89,28.89,0,0,0-1.09,5.48c-.1.91-.16,1.81-.19,2.69s0,1.78,0,2.54v4.73l0,9.45-.11,4.72V614a4.35,4.35,0,0,0-.53,2,4.13,4.13,0,0,0,.5,2v.39c0,.71,0,1.38-.1,2s-.15,1.24-.28,2-.32,1.6-.45,2.53a27,27,0,0,0-.25,2.79c-.08,1.87,0,3.38,0,5l0,4.76v4.7c0,1.54,0,3-.14,4.49s-.2,3.3-.22,4.94c0,.85,0,1.62,0,2.51s0,1.77.12,2.69.21,1.88.37,2.75.29,1.58.38,2.22a26,26,0,0,1,.25,4.1c0,1.64.06,3.36.18,5s.23,3,.26,4.53,0,3,0,4.49-.19,2.82-.32,4.57-.15,3.47-.15,5.06,0,2.89-.19,4.31-.37,3.31-.41,5c0,.87,0,1.7,0,2.55s0,1.79.13,2.74c.06.68.16,1.37.27,2-.54,3.24-3.79,4.5-6.88,5.19a29.7,29.7,0,0,0-14,3.63,31.15,31.15,0,0,0-11,11.19,29.86,29.86,0,0,0-3.63,15.17,39.76,39.76,0,0,1-.31,5.36,48,48,0,0,0-.36,6.35c0,3.06.09,4.62.19,6.12s.17,2.8.17,5.59c0,3.07.1,4.62.2,6.13s.18,2.79.18,5.57a29.66,29.66,0,0,1-.39,5.22,39.28,39.28,0,0,0-.48,6.49c0,3.05.09,4.61.18,6.11s.16,2.8.16,5.6-.08,4.14-.17,5.57-.2,3.06-.2,6.13a47.59,47.59,0,0,0,.36,6.33,42,42,0,0,1,.3,5.37c0,5.69,2.41,10.3,4.87,14.55,2.09,3.59,5.15,8.1,10.35,11.12,4.09,2.38,8.81,3.49,14.83,3.49a21.27,21.27,0,0,1,5.49.61,29.36,29.36,0,0,0,7.38.82h12.87a55.69,55.69,0,0,0,6.9-.38,46.46,46.46,0,0,1,6-.32c3.33,0,5-.1,6.67-.19s3.09-.17,6.19-.17,4.56.1,6.15.2,3.35.22,6.7.22,4.89,0,6.51-.06,3.18-.06,6.36-.06c3.35,0,5-.1,6.7-.21s3.08-.19,6.16-.19c6.2,0,11-1.09,15-3.44s7.54-6,10.55-11.22a26.92,26.92,0,0,0,1.88-3.95c1.84-2.67,2.88-5.73,6.55-6.64,1.85-.46,3.68-.65,5.47-1,1.23,0,2.51-.06,3.78-.18,1.06-.09,2.06-.23,2.92-.31s1.7-.15,2.58-.18c1.71-.06,3.65,0,5.51,0l5.75.14c2,0,4,0,5.64.07.88,0,1.7.1,2.55.2l2.89.35a56,56,0,0,0,6.28.24c1,0,2.11-.06,3.2-.16s2.18-.26,3.08-.38,1.68-.22,2.52-.27,1.7-.07,2.59-.07,1.74,0,2.54.08a23,23,0,0,1,2.41.3c.82.14,1.89.36,3,.51s2.24.23,3.31.26c.54,0,1.05,0,1.58,0h1.53c1,0,2.08-.06,3.13-.14s2.08-.21,3-.3,1.71-.14,2.59-.18,1.76,0,2.69,0h8.63c1.93,0,3.78,0,5.87,0s4.33-.29,6-.45c.87-.08,1.72-.12,2.6-.15s1.85,0,2.64,0a20.63,20.63,0,0,1,2.32.18,22.54,22.54,0,0,1,2.37.51,29.28,29.28,0,0,0,3.33.66,28.65,28.65,0,0,0,3.38.23l11.56.07c1.91,0,3.92,0,5.95-.07l2.95-.16c.92,0,1.81-.09,2.72-.11l5.76-.07c1,0,2-.07,3-.13s1.88-.12,2.78-.15c1.79-.07,3.67-.08,5.5,0s3.48.14,5.52.29,4.13.15,6,.15,3.68,0,5.57.12,4,.12,5.93.12a55.17,55.17,0,0,0,6.21-.26c2.1-.23,3.59-.41,5.39-.45s3.67,0,5.45,0c.89,0,1.79.1,2.77.16s2,.11,3,.14c2,.05,4,0,5.93,0l5.78-.13,2.81,0h1.44l1.57,0c1.05,0,2.16-.11,3.25-.25s2.11-.32,2.94-.44,1.62-.2,2.47-.24,1.72-.07,2.59-.06,1.7,0,2.5.11,1.54.19,2.46.36,2,.37,3.17.49,2.21.16,3.26.18c4,0,7.88-.12,11.61-.14s7.78-.06,11.5-.11H583c1,0,2.06,0,3.14-.09a31.55,31.55,0,0,0,3.26-.36c1.05-.16,1.89-.32,2.69-.41a38.67,38.67,0,0,1,5.17-.2c1.86,0,3.49.12,5.49.27,1,.07,2.05.12,3.06.14s2,0,3,0a26.78,26.78,0,0,0,6.75-1c1.07-.29,2.1-.64,3.09-1s2-.79,2.82-1.13a56.6,56.6,0,0,0,5.65-2.59,22.49,22.49,0,0,0,3-1.94,15,15,0,0,0,1.42-1.24c.46-.44.84-.85,1.23-1.3a27.1,27.1,0,0,0,3.72-5.6,53.61,53.61,0,0,0,2.48-5.73,37.2,37.2,0,0,0,1.73-6.23,25,25,0,0,0,.36-3.38c0-.28,0-.57,0-.86v-.75c0-.44,0-.87,0-1.29,0-.85.08-1.59.19-2.52s.23-2.13.25-3.19,0-2.07,0-3.22A18.29,18.29,0,0,0,641,779.6ZM289.72,841.74c-2.66,1.54-6,2.26-10.63,2.26-3.36,0-5.06.11-6.71.21s-3.08.2-6.15.2c-3.26,0-4.88,0-6.51.05s-3.18.06-6.36.06-4.56-.1-6.14-.2-3.36-.21-6.71-.21-5,.09-6.67.18-3.1.17-6.19.17a56.05,56.05,0,0,0-6.9.37,46.15,46.15,0,0,1-6,.33H201.92a21.09,21.09,0,0,1-5.48-.62,29.94,29.94,0,0,0-7.39-.82c-4.42,0-7.74-.73-10.45-2.3s-4.9-4-7.19-8c-2-3.48-3.69-6.64-3.69-10.17a47.89,47.89,0,0,0-.36-6.34,41.83,41.83,0,0,1-.3-5.36c0-2.79.09-4.14.18-5.58s.19-3.06.19-6.12-.09-4.61-.18-6.11-.16-2.8-.16-5.6a29.84,29.84,0,0,1,.39-5.22,39.17,39.17,0,0,0,.48-6.49c0-3.06-.1-4.62-.2-6.13s-.18-2.78-.18-5.57c0-3.06-.1-4.62-.19-6.13s-.17-2.79-.17-5.58a41.83,41.83,0,0,1,.3-5.36,47.64,47.64,0,0,0,.37-6.35,21.33,21.33,0,0,1,2.45-10.79,22.22,22.22,0,0,1,7.87-8,21.65,21.65,0,0,1,10.84-2.48,49,49,0,0,0,7-.44,40.12,40.12,0,0,1,5.88-.37,18.22,18.22,0,0,1,5.36.68,26.47,26.47,0,0,0,7.51,1c3.35,0,5.06-.11,6.7-.21s3.08-.2,6.15-.2,4.77,0,6.36,0,3.25,0,6.5,0a34,34,0,0,0,7.24-.68,25.15,25.15,0,0,1,5.62-.54,26.32,26.32,0,0,1,5.66.52,34.94,34.94,0,0,0,7.21.65,46.22,46.22,0,0,0,7-.47,36.17,36.17,0,0,1,5.85-.4c3.78,0,7.4,1.81,10.44,3.57A20.72,20.72,0,0,1,297,731l.44.76c1.84,3.14,3.74,6.39,3.74,9.56a17.58,17.58,0,0,1-.58,4.85,26,26,0,0,0-.8,6.85,35.72,35.72,0,0,0,.52,6.54,27.64,27.64,0,0,1,.41,5.16c0,3,0,4.54.11,6s.1,2.85.1,5.7a27.85,27.85,0,0,1-.41,5.17,36.76,36.76,0,0,0-.51,6.53c0,3.09.11,4.65.22,6.17s.2,2.77.2,5.54-.09,4.13-.19,5.57-.2,3.07-.2,6.14c0,2.84-.06,4.22-.12,5.68s-.12,3-.12,6a20.15,20.15,0,0,1-2.69,10.39C294.89,837.5,292.47,840.14,289.72,841.74Z" transform="translate(-95.28 -189.79)"/><path class="h" d="M757.59,836.58c-.47.06-.94.12-1.38.2a26.89,26.89,0,0,1-3.75.49,24.71,24.71,0,0,1-3.59-.07,13.59,13.59,0,0,1-1.62-.29c-.59-.14-1.4-.35-2.29-.51a26.1,26.1,0,0,0-5.09-.36c-.78,0-1.59,0-2.42.11s-1.69.18-2.44.3a25.85,25.85,0,0,1-3.75.43,36.42,36.42,0,0,1-3.78,0c-.6-.05-1.16-.12-1.83-.22s-1.49-.22-2.32-.3a40.8,40.8,0,0,0-4.72-.16l-4.32.06c-2.84.07-5.61,0-8.61.12l-4.27.15-4.24.07c-1.47,0-3.06.1-4.47.2s-2.68.14-4.07.16-2.71,0-4-.07l-2-.15c-.74-.06-1.54-.11-2.31-.14-1.56-.06-3,0-4.46,0l-4.3.06-4.26.06a42.2,42.2,0,0,0-4.67.25c-1.64.21-2.8.42-4.06.49-.63,0-1.29.06-1.95.08h-2.08c-1.39,0-2.72,0-4.2-.07s-3,0-4.41,0a3.49,3.49,0,0,0,0,7h0c1.41,0,2.78.05,4.16.12s2.89.16,4.35.2l2.21,0c.76,0,1.53,0,2.32,0s1.61-.1,2.38-.19l2.07-.24a34.82,34.82,0,0,1,3.88-.12l4.31,0,4.26,0c1.44,0,2.8,0,4.09.09.66,0,1.28.09,2,.16s1.45.16,2.23.21c1.57.12,3.09.14,4.56.14s3,0,4.49-.12,2.71-.13,4.09-.13,2.86,0,4.32,0l4.28-.1h12.76a32.44,32.44,0,0,1,3.83.16c.59.07,1.18.17,1.93.29s1.59.23,2.41.3l26.06.59c.82,0,1.67-.1,2.51-.21s1.61-.26,2.23-.36,1.17-.17,1.76-.21,1.2-.07,1.85-.07a30.38,30.38,0,0,1,3.76.18l2.06.27c.78.11,1.62.18,2.43.23,1.63.09,3.1.09,4.7,0s3.36-.28,4.57-.43a32.81,32.81,0,0,1,3.78-.18,22.65,22.65,0,0,1,3.59.25,36.58,36.58,0,0,0,4.65.64c.83.06,1.64.07,2.4.07h2.17l4.31-.07,4.25,0c.77,0,1.57,0,2.38-.07s1.66-.14,2.43-.25a33.38,33.38,0,0,1,3.85-.41l1,0h1.06c.76,0,1.55,0,2.35-.08s1.64-.13,2.4-.22,1.39-.19,2-.24a36.48,36.48,0,0,1,3.82-.14,22.35,22.35,0,0,1,3.67.3c.66.1,1.47.23,2.3.32s1.67.14,2.47.16c1.63,0,3,0,4.52,0l4.3-.17c1.37,0,2.71,0,4.17,0s2.91,0,4.35-.08,2.8-.06,4.21-.08,2.94,0,4.45-.1c.77,0,1.54-.1,2.24-.15s1.35-.1,2-.13c1.29-.06,2.79-.09,3.92-.05a14.22,14.22,0,0,1,1.66.15c.54.08,1.08.21,1.83.38s243.81.36,244.68.46a22.74,22.74,0,0,0,2.55.17c.84,0,1.54,0,2.31,0s1.52,0,2.29-.09l2.21-.17c.69-.06,1.33-.11,2-.14,1.32-.06,2.67,0,4.17-.09s3-.1,4.37-.17,2.75-.1,4.16-.12,2.68,0,4,.07,2.86.27,4.41.3c.78,0,1.53,0,2.28,0l2.16,0,8.56-.16h0a3.48,3.48,0,0,0,0-7l-8.57-.13-2.13,0c-.67,0-1.35,0-2-.07-1.3-.06-2.52-.23-4.11-.39s-3.12-.19-4.59-.2-2.94,0-4.4,0-2.79.07-4.19.06-2.85,0-4.39,0c-.76,0-1.55.07-2.28.12l-2.06.13c-.66,0-1.31,0-2,.05s-1.39,0-2,0-1.19-.06-1.72-.13a16.84,16.84,0,0,1-1.69-.34c-.63-.16-243.64-.38-244.51-.52a19.93,19.93,0,0,0-2.59-.29c-1.73-.08-3.08-.06-4.65,0-.76,0-1.54.06-2.26.11l-2,.11c-1.33,0-2.63,0-4.1,0s-2.92,0-4.35,0l-4.21,0c-1.39,0-2.91,0-4.39,0l-4.26.15c-1.34,0-2.82,0-4,0a24.94,24.94,0,0,1-3.74-.41c-.75-.12-1.61-.23-2.43-.3s-1.64-.1-2.43-.12c-1.55,0-3.08,0-4.73.15-.81.08-1.59.18-2.25.26s-1.24.13-1.87.17-59.52.32-60.18.32M572.1,706.71h0C572.07,706.62,572.1,706.64,572.1,706.71Z" transform="translate(-95.28 -189.79)"/><path class="h" d="M559.61,427.32a15.59,15.59,0,0,0-2.44-4.7,7.43,7.43,0,0,1-1.25-2.41c-.62-1.82-.91-2.74-1.2-3.66s-.6-1.94-1.26-3.87a11.44,11.44,0,0,1-.33-6.31c.24-.87.62-1.82,1-2.84a21.39,21.39,0,0,0,2-8.08,35.45,35.45,0,0,0-1.75-9.71c-.13-.45-.26-.9-.38-1.35A42,42,0,0,0,549.84,374a28.6,28.6,0,0,0-5.86-6.54c-.59-.53-1.18-1.06-1.75-1.61a40.35,40.35,0,0,0-9-6.29A39.14,39.14,0,0,0,523,355.6c-.84-.2-1.74-.48-2.69-.78a24.26,24.26,0,0,0-8.25-1.49,30.69,30.69,0,0,0-9.86,2.5c-.71.28-1.42.55-2.13.8s-1.6.54-2.4.8a30.12,30.12,0,0,0-9,4.09,27.66,27.66,0,0,0-6.24,7.23c-.56.84-1.09,1.63-1.64,2.37s-1.26,1.58-2,2.41a25.34,25.34,0,0,0-5.12,7.87,42.83,42.83,0,0,0-2.25,12.42,31.87,31.87,0,0,0,1.35,9.16c.17.64.33,1.29.48,1.92a40.68,40.68,0,0,0,4.25,10.24c.44.82.85,1.75,1.29,2.75A23,23,0,0,0,483,425a43.8,43.8,0,0,0,9.06,6.84,42.54,42.54,0,0,0,10.41,4.48,23.55,23.55,0,0,0,8.21.39c1.06-.08,2.06-.15,3-.15,5,0,11.51-1.9,14.09-2.71a13,13,0,0,1,6.3-.61,34.63,34.63,0,0,1,3.61,1,43.34,43.34,0,0,0,4.35,1.18,11.67,11.67,0,0,1,3,1,19.53,19.53,0,0,0,4.85,1.71,7.28,7.28,0,0,0,1.61.17,8.51,8.51,0,0,0,6.24-2.9A8.23,8.23,0,0,0,559.61,427.32Zm-28-41.88L514,411.59l-.08.12a4.78,4.78,0,0,1-6.63,1.3,4.88,4.88,0,0,1-1.12-1.05l-10-13a4.14,4.14,0,0,1,.32-5.52,4,4,0,0,1,5.6.12l6.58,6.7a1,1,0,0,0,1.5-.1L525,381a4.14,4.14,0,0,1,5.49-1.09A4,4,0,0,1,531.58,385.44Zm18.72,42.62,0,0s0,0,0,0Z" transform="translate(-95.28 -189.79)"/><path class="h" d="M642.39,618.43c0,1.43,0,2.78,0,4.2s-.1,2.84-.15,4.15c-.13,2.61-.06,5.15-.15,8.12,0,1.45-.16,3-.27,4.27s-.17,2.5-.19,3.79c0,2.48,0,5.64-.26,8.37-.1,1.34-.17,2.55-.21,3.85s0,2.62,0,3.86.09,2.42.22,3.72.27,2.89.31,4.34c.06,3,0,5.56,0,8.27s0,5.49-.11,8.21-.17,5.53-.25,8.17l-.12,4.06c0,1.42-.14,2.89-.31,4.36s-.39,2.79-.51,4-.22,2.5-.27,3.81v0a3.49,3.49,0,0,1-7,0c-.05-1.41-.08-2.86,0-4.33s.21-2.89.27-4.11.06-2.48,0-3.78-.08-2.72-.09-4.08c0-2.79,0-5.43-.07-8.12s-.12-5.36-.21-8.08-.06-5.6-.17-8c-.07-1.26-.19-2.38-.35-3.78s-.28-3-.32-4.4,0-2.86,0-4.28.08-2.92.18-4.29c.21-2.69.2-5,.22-7.91,0-1.42.08-2.92.2-4.34s.2-2.59.23-3.86c0-.56,0-1.15,0-1.75-.28-3.21.68-6.74-1.87-9.12a9.79,9.79,0,0,0-5.06-2.35h0l-1.07,0h-1l-2,0c-1.33,0-2.7-.11-3.91-.19s-2.34-.13-3.54-.14c-2.3,0-5.22,0-7.77-.23s-4.63-.21-7.21-.2l-7.53,0-15.06,0c-1.18,0-2.33,0-3.43.09s-2.23.24-3.65.37-2.79.17-4.13.17-2.71,0-4.14-.15-3-.39-4.06-.58a23.29,23.29,0,0,0-3.23-.35c-1.09-.05-2.34-.06-3.55-.05s-2.38,0-3.62.08c-2.53.12-5.31.08-7.7,0-1.22,0-2.41,0-3.62,0s-2.55.09-3.85.09c-2.64,0-5.1-.1-7.57-.11s-5.07,0-7.58-.13a3.49,3.49,0,0,1,0-7h0l7.48-.27,7.49-.22c1.2-.05,2.38-.13,3.67-.21s2.62-.14,3.91-.17c2.62-.05,4.87-.1,7.35-.29,1.26-.09,2.61-.15,3.9-.18s2.57-.06,4,0a33.7,33.7,0,0,1,4.26.37c1.36.21,2.33.36,3.4.43s2.2.07,3.38,0,2.28-.09,3.38-.22,2.43-.31,3.84-.42,2.77-.15,4.09-.15l15.07-.1,7.52,0c1.24,0,2.55,0,3.88,0s2.72.11,4,.2c2.45.21,4.56.2,7.27.22,1.31,0,2.68.07,4,.16s2.42.16,3.6.21l1.79,0h1c3.31-1.23,6.45-3.25,7.37-6.84a9.84,9.84,0,0,0,.22-1.16c0-.72,0-1.44,0-2.15l-.18-4.07c-.06-1.43-.08-2.84-.08-4.23a16.22,16.22,0,0,0-.3-3.2,23.1,23.1,0,0,0-.89-3.29c-.19-.56-.4-1.12-.63-1.7l-.36-.87c-.11-.25-.2-.49-.32-.73a18.17,18.17,0,0,0-1.65-2.8,26.33,26.33,0,0,0-2.2-2.67l-.63-.66-.68-.71c-.56-.57-1.05-1.11-1.53-1.64-1.85-2.11-3.38-3.78-4.69-4.43a5.2,5.2,0,0,0-.52-.24c-.23-.1-.46-.18-.7-.27-.49-.16-1-.31-1.52-.43a23.43,23.43,0,0,0-3.38-.52c-1.19-.11-2.42-.15-3.68-.16s-2.55,0-3.76.1-2.49.24-4,.36-3,.15-4.41.16-2.89,0-4.4-.14-3-.32-4.23-.46-2.38-.2-3.65-.22-2.63,0-3.92,0-2.6.07-4,.11-2.81.08-4.2.08a70.38,70.38,0,0,0-7.77.27c-1.38.13-2.92.23-4.35.25l-2.15,0h-2c-1.31,0-2.55,0-3.89.11s-2.82.12-4.23.13c-2.84,0-5.52,0-8.29-.1l-8.18-.18a33.47,33.47,0,0,1-4.61-.5c-1.54-.29-2.65-.57-3.77-.7a31.89,31.89,0,0,0-3.63-.22c-1.3,0-2.54,0-3.78,0s-2.6.22-4.1.28-2.93,0-4.34,0a3.49,3.49,0,0,1,0-7h0c1.3,0,2.57-.14,3.8-.26s2.51-.35,4-.52a48.33,48.33,0,0,1,8.87-.2c1.58.13,3.13.45,4.27.61a24.65,24.65,0,0,0,3.49.23l4,0h4.11c2.66,0,5.4,0,8-.06,1.31,0,2.55-.11,3.92-.2s2.84-.17,4.24-.19l2.1,0,1.93,0c1.28,0,2.45-.12,3.77-.25s2.87-.26,4.32-.31,2.89,0,4.18-.06,2.62,0,3.95-.11,2.75-.11,4.15-.14,2.74,0,4.22,0,3,.09,4.48.24,2.68.34,3.87.4,2.45.09,3.74.08,2.52,0,3.73-.16,2.58-.29,4.1-.39,3-.15,4.39-.15,2.93,0,4.45.15a34.22,34.22,0,0,1,4.67.69c.79.18,1.59.4,2.4.67.4.13.8.28,1.21.44s.91.39,1.33.61a18.46,18.46,0,0,1,4.34,3.21c1.16,1.12,2.12,2.22,3,3.19.44.48.86.94,1.26,1.34l.73.74.78.82a35.76,35.76,0,0,1,3,3.62,27.17,27.17,0,0,1,2.46,4.23c.18.36.34.75.5,1.12l.41,1c.27.69.53,1.39.78,2.12a31.83,31.83,0,0,1,1.21,4.57,25.39,25.39,0,0,1,.45,4.9c0,1.33,0,2.63.05,3.92l.18,4.06q.06,2.15.06,4.23c0,1.34,0,2.58.08,3.81s.21,2.47.33,4S642.38,617,642.39,618.43Z" transform="translate(-95.28 -189.79)"/><path class="d" d="M870.55,527.57l-.74-2.27a27.65,27.65,0,0,0-1.79-8.51c-4.51-11.69-14.58-18.51-26.93-19.45a9.2,9.2,0,0,0-3.81.55,35.28,35.28,0,0,0-2.47-8.1c-7.7-17.32-31.27-24.91-47.3-14.07-9,6.09-11.36,14.45-10.06,23.15a40.85,40.85,0,0,0-15.33-1.71c-10.5.88-21.55,6.69-22.23,18.48a17.35,17.35,0,0,0,1.92,9,18.53,18.53,0,0,0-7.68,6.07c-4.35,3.77-7,9.86-7.58,16s4.68,10.49,10.27,11.22a24.44,24.44,0,0,0,24.41,4.86c9-3.12,16.43-10.71,21-19.24,9.57,7.81,24.66,8.73,36.08.68a44.19,44.19,0,0,0,10.92-11.3l.75.52c7.68,5.19,15.79,8.77,24.65,9a13.37,13.37,0,0,0,2.83-.06,35.67,35.67,0,0,0,5.14-.67C868.42,540.39,872.37,533.15,870.55,527.57Z" transform="translate(-95.28 -189.79)"/><path class="h" d="M931.37,844.22c1.49-2,2.9-3.92,4.26-5.82l.17-.25c1.76-2.47,3.49-4.88,5.25-7.09,1.59-2,2.52-3.3,3.08-4.11l.12-.22a50.65,50.65,0,0,0,3.94-19v-.14a25.85,25.85,0,0,1-.13-4.05c0-.78.12-1.51.19-2.12l0-.2c.09-.72.13-1.24.16-1.85a25.42,25.42,0,0,0-.25-3.93,3.17,3.17,0,0,1,6.25-1.08,29.44,29.44,0,0,1,.72,4.85,21,21,0,0,1,0,2.51c0,.83-.06,1.46,0,2a23.15,23.15,0,0,0,.44,3.69c.23,1.17.55,2.53.94,4s.95,3.14,1.5,4.82l.55,1.72.15.31a5.09,5.09,0,0,1,.85,2.75l.28,1.13c.17.6.35,1.2.52,1.82l.56,2.15,2.87,9.63a9.9,9.9,0,0,0,.53,2.42A7.59,7.59,0,0,0,965,840c.08.26.15.53.22.81.4,1.5.73,3,1.06,4.42" transform="translate(-95.28 -189.79)"/><path class="i" d="M945.18,596.14h0l.15-.09-1.25-2.21-.3.18-.07.05,1.39,2.11Z" transform="translate(-95.28 -189.79)"/><path class="e" d="M995.4,730.84a19.47,19.47,0,0,0-1.78-6.71l-.15-.25c-1.16-1.52-2.56-3.34-4.17-5.32-1.49-1.82-2.89-3.83-4.44-6.06l-.12-.19c-1.34-1.91-2.72-3.9-4.25-5.85-1.06-1.39-2.35-2.79-3.71-4.27l-.32-.35a77.84,77.84,0,0,1-5.79-6.72l-2.74-3.65-.37-.5c-1.91-2.52-3.88-5.13-5.82-7.87-1.15-1.61-2.37-3.15-3.85-5l-.25-.31c-1.67-2.11-3.4-4.28-5-6.66-1-1.52-2.09-3-3.16-4.56-1.57-2.25-3.53-5.05-5.29-7.82l-.17-.28-.27-.41a40.84,40.84,0,0,0-5.46-5.1c-5.32-4.05-11.58-5.69-16.43-6.66l-.2,0a28.86,28.86,0,0,0-3.54,0l-.13,0a3.81,3.81,0,0,1-4.14-3.44,3.85,3.85,0,0,1,3.16-4.11,45.54,45.54,0,0,1,9-.36l.76,0c1.4,0,2.87.06,4.25,0l4.39-.27c3.53-.17,6.46-.25,9.26-.24l2.27,0c.51,0,1,0,1.56,0l2.34-.1.23-.12a4.31,4.31,0,0,0,2.58-3.55,15.7,15.7,0,0,0-.41-4.41l-.07-.4a26.58,26.58,0,0,1,1.1-14.81,32.29,32.29,0,0,1,5.26-9.22l.15-.19.08-.23a5.31,5.31,0,0,0-.42-4.39l-.32-.54-.62-.08c-1.13-.15-2.08-.3-3-.48a44.06,44.06,0,0,1-4.84-1.36l-.82-.27a48.37,48.37,0,0,0-7.11-2,14.48,14.48,0,0,0-1.71-.18c-.57,0-1.17,0-1.81,0-1.27,0-2.66.18-4.15.34s-3,.34-4.71.45a37.29,37.29,0,0,1-5.18,0c-1.8-.12-3.44-.32-5-.52-1.4-.17-2.72-.33-3.92-.41-4-.44-8.31.55-13.28,1.69l-3.13.7c-1.91.41-3.76.74-5.57,1.06l-.21,0-.18.09a15.23,15.23,0,0,0-4.92,3.91c-2.62,3.44-2.52,7.54-2.19,11.42a2.4,2.4,0,0,1-.22,1.24l-.15.3,0,.34c1,15.49-5.8,29.71-17.79,37.12a33.6,33.6,0,0,1-17.71,5c-8.07,0-15.83-2.79-23.07-8.3l-.7-.4a29.71,29.71,0,0,0-4.49-2.14,8.27,8.27,0,0,0-5.14,0h-.39l-.21.22c-4.17,2-8.12,5.42-12.43,10.8l-.27.34V659c-.37.55-.72,1.1-1.06,1.67-2.26,3.8-3.19,8.47-4.17,13.41l-.39,2c-.78,3.82-1.91,9.56-2.76,15.27l-.16.88c-.05.3-.11.61-.16.92l0,.13v.14a5.09,5.09,0,0,0,2.11,4.33,12.16,12.16,0,0,0,5.72,1.31h.15l.15,0a33.93,33.93,0,0,1,16.4,1,29.92,29.92,0,0,1,11.49,6.62l.3.21a8,8,0,0,1,.69.42,5.22,5.22,0,0,0,2.66,1.08h0c3.08,0,4.39-3.84,4.82-5.11l0-.17c0-.22.08-.45.11-.67a29.6,29.6,0,0,0,0-6.24l0-.18a41.93,41.93,0,0,0-5.89-13.68L834,682a25.23,25.23,0,0,0-2.46-2l-.15-.11a3.19,3.19,0,0,1,3.14-5.51c4.33,1.87,7.89,5,10.73,7.55.8.73,1.52,1.36,2.27,2l.11.08a4.91,4.91,0,0,1,.85.72l.11.11.85.73.38.33c1.71,1.52,3.28,3.12,4.6,4.47a106,106,0,0,1,8.1,9.71l1.46,2c1.94,2.67,3.77,5.2,5.62,7.48A43.11,43.11,0,0,0,876.8,716l1.05.82c1.26,1,2.64,2.14,3.85,3.17l.92.77c1.38,1.13,2.88,2.33,4.47,3.47s3.18,2.13,4.71,3c.71.42,1.4.81,2.28,1.29l.34.18c.94.54,1.83,1.06,2.69,1.58a66,66,0,0,0,9.93,5.33l.2.09a3.14,3.14,0,0,1,1.74,1.71,3.09,3.09,0,0,1,0,2.44,3.19,3.19,0,0,1-3.5,2,36.65,36.65,0,0,1-6.2-1.75l-.38-.08a11.94,11.94,0,0,0-10.52,4.92l-.13.23a12.38,12.38,0,0,0-.94,3.31l0,.11v.11c0,1.17.08,2.37.15,3.65l0,.53a3.29,3.29,0,0,1,0,.7v.16l0,.47L887,753.1l.52,4.87h0s0,.13,0,.3,0,.37.06.56c0,.46.09.87.14,1.21l.06.56h0c.14.67.33,1,.74,1.14a4.27,4.27,0,0,0,1.78,1.34,5.8,5.8,0,0,0,2.21.4,9.6,9.6,0,0,0,2.67-.41l.32-.14a42.77,42.77,0,0,1,6.71-3.45l.57-.22.43-.17.17-.14a5,5,0,0,1,3.71-1.23h.22l.21-.06a82.34,82.34,0,0,1,10.78-2.12c1.65-.21,3.29-.55,5-.91l.61-.12a58.84,58.84,0,0,1,10.27-1.43c2,0,4-.05,6.05-.05,3.19,0,6.2,0,9.24-.17a82,82,0,0,0,13.7-2.44l1.64-.38c4.27-1,8.31-2,12.17-4.06,1-.55,2.11-1.06,3.15-1.57l.59-.29a35.1,35.1,0,0,0,8.72-5.24c1.42-1.31,2.83-2.7,4.18-4.16l.26-.28.06-.38a5.08,5.08,0,0,1,1.07-2.36l.31-.38Z" transform="translate(-95.28 -189.79)"/><path class="h" d="M1031.31,842.63c-.07-2.67,0-5.68,0-8.62l.07-8.84c0-1.44,0-3-.08-4.57s-.16-3-.26-4.53l-.63-8.71c-.19-2.94-.4-5.91-.68-8.91a173.76,173.76,0,0,0-2.6-18c-.29-1.5-.61-3-1-4.48l-1-4.34c-.71-2.91-1.49-5.9-2.48-8.91-.24-.75-.5-1.51-.77-2.26l-.8-2.14-1.57-4.13a71.27,71.27,0,0,0-3.93-8.76,45.76,45.76,0,0,0-3.69-5.65,20.35,20.35,0,0,1-2-7.88c.64-2.84-.29-6.09-2.74-8.94-.7-.82-1.75-2.21-3-3.83-1.61-2.12-3.61-4.77-6.05-7.77-1.24-1.53-2.54-3.4-3.92-5.38s-3-4.27-4.73-6.54c-1.46-1.88-3.09-3.64-4.67-5.35a71.88,71.88,0,0,1-5-5.78c-.91-1.23-1.85-2.47-2.79-3.72-2-2.62-4-5.32-6-8.1-1.36-1.91-2.82-3.74-4.23-5.51-1.69-2.11-3.29-4.11-4.7-6.21-1.06-1.58-2.16-3.16-3.27-4.74l-.48-.69c-1.65-3.1-3.28-7.45-.71-9.35a9,9,0,0,1,3.54-1.37l.95.1c3.22.3,6.36.38,9.11.58a16.49,16.49,0,0,1,6.55,1.54,29.14,29.14,0,0,1,6.09,4c.5.43,1,.86,1.5,1.32l1.56,1.46,3.25,3.07c2.13,2,4.18,4.06,6.07,6.12.94,1,1.9,2.14,2.85,3.26l2.86,3.34,5.74,6.71c2,2.47,3.95,4.8,5.82,7.06q1.41,1.69,2.69,3.34l1.24,1.65c.38.53.67,1,1,1.49a69.62,69.62,0,0,1,3.7,7.4,49.33,49.33,0,0,0,2.4,4.62c.56.9,1,1.47,1.38,2.13l1.3,1.92,5.16,7.43,1.15,1.72.49.78c.11.18.18.32.24.44a1.22,1.22,0,0,1,.11.27h0c-.67,3-1.38,6-1.92,9.22-.27,1.63-.49,3.3-.62,5-.07.88-.1,1.78-.11,2.69,0,.45,0,.93,0,1.39l.06,1.29a53.16,53.16,0,0,0,1.61,10.13,45.57,45.57,0,0,0,1.6,5,34.43,34.43,0,0,0,2.37,5,30.53,30.53,0,0,0,7.48,8.5,38.6,38.6,0,0,0,4.49,3.05c.79.45,1.5.84,2.38,1.27a23.52,23.52,0,0,0,2.82,1.17,22.76,22.76,0,0,0,12.32.68,25.81,25.81,0,0,0,5.66-2,25.1,25.1,0,0,0,5.09-3.29,25.76,25.76,0,0,0,7-9.59,36,36,0,0,0,2.67-10.59,45.79,45.79,0,0,0-.18-10.48l-.66-4.55c-.22-1.54-.47-3.15-.81-4.82a33.52,33.52,0,0,0-3.8-10.42,35.79,35.79,0,0,0-7.14-8.23l-3.48-3.05-1.6-1.42a2.59,2.59,0,0,1-.18-.27,7.4,7.4,0,0,1-.49-1.06l-.38-1.06c-.18-.47-.36-.91-.53-1.32-.7-1.63-1.38-3-2-4.36-1.32-2.71-2.57-5.3-3.71-7.93-1.08-2.45-2-5.22-3.15-8.17-.57-1.47-1.17-3-1.84-4.48s-1.43-3-2.15-4.42c-1.47-2.82-3-5.5-4.51-8.12l-2.25-3.9c-.76-1.35-1.59-2.74-2.41-4.06-1.64-2.66-3.32-5.22-5-7.74l-1.22-1.88-1.12-1.77-2.24-3.77a95.37,95.37,0,0,0-5.19-8.16c-3.32-4.48-6.43-9.94-11.14-15.1-2.3-2.49-4.62-4.6-6.73-6.61-1-1-2-2-3-3-1.11-1.17-2.31-2.36-3.56-3.49a49.43,49.43,0,0,0-4-3.27c-.7-.52-1.43-1-2.17-1.5s-1.43-.89-2.16-1.32a52.27,52.27,0,0,0-9.3-4.32l-2-.71-2-.76-4.33-1.64c-1.49-.54-3-1.07-4.63-1.54-.81-.24-1.57-.46-2.44-.68a27.69,27.69,0,0,0-2.87-.55c-3.67-.5-6.72-.44-9.39-.68a27.28,27.28,0,0,1-7.38-1.55,63.09,63.09,0,0,0-9.64-2.65,27.29,27.29,0,0,0-2.91-.3c-1,0-1.91,0-2.8,0-1.8.06-3.44.24-5,.4s-2.93.33-4.22.41a26.58,26.58,0,0,1-3.68,0c-2.56-.16-5.53-.68-8.95-.94a36.59,36.59,0,0,0-5.45,0,47.44,47.44,0,0,0-5.13.68c-3.26.6-6.24,1.37-9,2C892,588,885.63,588.42,878.83,591a60.69,60.69,0,0,0-7.22,3.44c-.57.2-1.15.41-1.74.66a10,10,0,0,1-7.64.32l-1.47-1.11-6.86-5.12a11.29,11.29,0,0,1-.54-5.89,73,73,0,0,0,1.36-10.41,3.59,3.59,0,0,0,.23-1.5c-.31-7.5,3-13.54,7.76-18.64,16.06-12.19,17.59-29.5,13.57-41.45a35.12,35.12,0,0,0-20.74-21.85,3.77,3.77,0,0,0-2.53-1.22l-2-.2a35.81,35.81,0,0,0-4.51-.68,15.32,15.32,0,0,1-7.59-3.68,31.32,31.32,0,0,0-2.28-3.46,36.71,36.71,0,0,0-11.13-9.61,44.52,44.52,0,0,0-28.09-5.31,38.73,38.73,0,0,0-14.05,4.91,37.48,37.48,0,0,0-11.1,10.13c-.78,1.09-1.49,2.21-2.15,3.35-.43.48-.87,1-1.33,1.44-2.49,2.58-5.72,3.25-9.13,3.66a42.91,42.91,0,0,0-8.56.8,34.09,34.09,0,0,0-12.31,5.1,31.44,31.44,0,0,0-9.42,9.89A36.84,36.84,0,0,0,724.72,517c-.17,1-.3,2-.4,3a13.47,13.47,0,0,0-.25,5.06c0,.64,0,1.28,0,1.92a9.38,9.38,0,0,1-.23,1.64,38.27,38.27,0,0,1-1.26,4,28.33,28.33,0,0,0-2.35,7.63,30.77,30.77,0,0,0,3.36,19.13,31.91,31.91,0,0,0,2.68,4.15c.49.65,1,1.27,1.57,1.91s1.26,1.32,1.93,1.91a27.86,27.86,0,0,0,8.93,5.13,34.19,34.19,0,0,0,12.46,1.8c6.06.6,11.6.23,15.83,6.22l.83,1.19c12.92,25.06,27.86,34.36,38.73,37.65a28.28,28.28,0,0,0,5.9,1.1c1,.15,2,.25,3,.33,1.87.14,5.15,0,6.46,1.67s-.57,4.74-1.74,6c-.62.69-1.19,1.33-1.75,2l-.64.53a63.94,63.94,0,0,1-5.29,3.93c-1.57,1.08-3.19,2.18-6.21,4.65a58.66,58.66,0,0,0-13,15.29c-3.28,5.48-4.45,11.36-5.58,17l-.38,1.92c-.89,4.32-2,10-2.88,15.89-.32,2.15-.78,4.28-1.27,6.54a84,84,0,0,0-1.64,9.35c-.25,2.48-.42,4.87-.56,7.22a10.15,10.15,0,0,1-1,2.17c-1.56,2.38-3.66.7-5.26-1-.31-.48-.63-1-1-1.44-.81-1.18-1.65-2.37-2.55-3.56-.53-.71-1.09-1.41-1.65-2.09a19.11,19.11,0,0,1-2.12-4.42,14.06,14.06,0,0,1-.25-6.78c.34-.8.67-1.61,1-2.44a38,38,0,0,0,2.52-10.58c.06-1,.09-1.89.08-2.82a26.39,26.39,0,0,0-.16-2.79,29.66,29.66,0,0,0-1.12-5.69,22.72,22.72,0,0,0-17.55-16.1c-.93-.21-2-.37-2.79-.48s-1.69-.2-2.56-.28l-1.71-.1a23.57,23.57,0,0,0-6-.21c-4.22.31-7.61-1.06-9.9-4.26l-.43-1a22.36,22.36,0,0,1-.13-12.09,20.83,20.83,0,0,0,1.22-3,36.46,36.46,0,0,0,1.24-12.34,53.45,53.45,0,0,0-1.93-10.55l-.18-.73a69.72,69.72,0,0,0-3.46-10.65h0a71,71,0,0,0-5.22-9.92l-1.19-1.91a43.2,43.2,0,0,0-5.43-7.54A36.15,36.15,0,0,0,703.29,573c-6.53-3.22-11.8-2.22-15.07-.81a17.93,17.93,0,0,0-10,11.43A36.84,36.84,0,0,0,677,596l0,.48a52.43,52.43,0,0,0,1.32,11,35.17,35.17,0,0,0,3,7.33c.53,1.06,1,2.06,1.45,3s.81,2.08,1.21,3.23a33.9,33.9,0,0,0,3.19,7.18,52.52,52.52,0,0,0,7.1,8.53l.33.35c2.92,3,6.11,6.06,9.74,7.85a18.23,18.23,0,0,0,5,1.61,18.15,18.15,0,0,1,7.3,6.7l1.46,3.39a6.84,6.84,0,0,1-1.11,4.79c-.66,1-1.35,1.79-2,2.63a17.85,17.85,0,0,0-3.64,4,20.58,20.58,0,0,0-3,12.85l.26,2.43.17,2.13c.12,1.54.24,3.27.53,5.11a29.69,29.69,0,0,0,1.44,5.71,25.79,25.79,0,0,0,1.26,2.84c.44.86.91,1.67,1.4,2.46a52.59,52.59,0,0,0,6.57,8.24c.58.61,1.17,1.2,1.77,1.79l.94.9c.4.37.81.73,1.21,1a33.06,33.06,0,0,0,4.76,3.15c2.61,1.46,5,2.58,7.22,3.7a10.83,10.83,0,0,1,.78,1.1,3.71,3.71,0,0,1,.51,1.46c.2,1,.52,2.64,1,4.09a36.78,36.78,0,0,0,1.53,4.19l1.5,3.42,1.45,3.37c1,2.29,2,4.63,3.1,7,2.26,4.82,4.89,9.21,7.16,13.38l.84,1.56c.25.47.45.86.67,1.34.43.92.85,1.93,1.27,3,.86,2.17,1.74,4.63,3,7.27.32.66.66,1.33,1,2l1,1.76,1.92,3.21c1.3,2.15,2.64,4.32,4.08,6.49l1.09,1.62c.38.56.7,1,1.21,1.71a31.91,31.91,0,0,0,3,3.48,78.7,78.7,0,0,0,6,5.36c.89.76,1.71,1.48,2.36,2.12.94.94,1.93,1.89,3,2.83a34.7,34.7,0,0,0,3.62,2.8,19.78,19.78,0,0,0,4.94,2.43,14.78,14.78,0,0,0,3.15.67c.55,0,1.11.08,1.67.08a14.53,14.53,0,0,0,1.59-.11,19.66,19.66,0,0,0,5.37-1.4,29.68,29.68,0,0,0,7.94-5.2c.53-.47,1-.93,1.53-1.4s.71-.66,1.13-1c.72-.61,1.63-1.29,2.63-2.06a38.1,38.1,0,0,0,6.56-5.94,33.63,33.63,0,0,0,4.69-7.86c1.12-2.46,2-4.74,3-6.83s2-4.24,3.11-6.49,2.19-4.65,3.19-7.14c.25-.64.48-1.22.74-1.93s.51-1.48.71-2.2c.41-1.43.72-2.8,1-4.1.52-2.59.89-4.91,1.41-6.9l1-3.51c.34-1.28.65-2.54.94-3.78l1.63-7.25,3-14.84.16-.8c0-.22.08-.44.14-.67.1-.46.22-.94.37-1.45.09-.31.19-.64.3-1,1.12-2.35,2.77-4.37,5.27-4,1.47.2,2.87,1.53,4.16,3,.84,1.14,1.71,2.29,2.64,3.45,3.4,4,7.14,6.57,10.32,8.92.87.63,1.65,1.21,2.46,1.83a14.22,14.22,0,0,1,3.36,5.84,35.24,35.24,0,0,1-.47,6.14c-.13,1-.26,2-.37,3.05a63.6,63.6,0,0,0,0,10.33c.1,1.87.19,3.63.17,5.21-.09,5.22.72,11.92,7.72,17.46l.36.32a13.26,13.26,0,0,0,2.27,1.7,8.27,8.27,0,0,1,1.11,3.58,9.74,9.74,0,0,1,0,1.43c-.78,1.56-1.58,3.15-2.44,4.78s-1.9,3.52-2.91,5.34c-1.54,2.8-3.13,5.7-4.7,8.77-2.16,4.26-4.71,9.29-7.18,14.37l-.75,1.53c-2.06,4.22-4.18,8.59-6.2,13a70.87,70.87,0,0,0-3.17,8.88,65.51,65.51,0,0,1-2.17,6.4m14.3-2.7a58.51,58.51,0,0,1,2.57-7.29c2-4.26,4.05-8.56,6.07-12.72l.75-1.53c2.43-5,4.94-10,7.08-14.16,1.47-2.89,3-5.7,4.51-8.41,1-1.89,2.06-3.73,3-5.53l.7-1.36a4.68,4.68,0,0,0,.58-.72c5.64-8.91,11.41-16.82,21.31-21.27,7.85-3.53,16.41-4.75,24.94-5.54,2.06,0,4.13-.05,6.25-.18a91,91,0,0,0,15.65-2.72l1.38-.33c2.56-.6,5.18-1.22,7.84-2.08,9.27-.81,19.63-6.46,27,1.07A66.35,66.35,0,0,1,1012.55,775l.89,3.85c.31,1.36.59,2.72.86,4.09a163.74,163.74,0,0,1,2.31,16.67c.24,2.81.43,5.66.6,8.56l.58,8.75c.09,1.43.17,2.83.23,4.22s.09,2.7.05,4.19L1018,834c0,2.89-.12,5.72-.06,8.89m-50.4,2c-.33-1.46-.68-2.95-1.08-4.46s-.81-2.94-1.23-4.38l-2.5-8.32-.56-2-.56-2.13c-.24-.9-.51-1.76-.77-2.63a6.36,6.36,0,0,0-1-3.44c-.73-2.25-1.47-4.43-2-6.49-.35-1.25-.67-2.59-.91-3.85a19.81,19.81,0,0,1-.42-3.48c0-.55,0-1.16,0-1.94a23.4,23.4,0,0,0,0-2.65,32.53,32.53,0,0,0-.75-5,4.44,4.44,0,0,0-8.75,1.51v.09a23.86,23.86,0,0,1,.24,3.64c0,.55-.08,1.05-.16,1.72s-.18,1.51-.23,2.43a28.25,28.25,0,0,0,.13,4.25,48.93,48.93,0,0,1-3.82,18.51c-.69,1-1.62,2.27-3,4-1.75,2.19-3.47,4.6-5.29,7.14-1.41,2-2.87,4-4.41,6m104.06-123.11h0ZM995.35,612.7a37.17,37.17,0,0,1,3,2.45c1,.88,1.92,1.81,2.89,2.82,1.14,1.21,2.29,2.33,3.41,3.4,2.25,2.14,4.38,4.1,6.16,6,3.48,3.73,6.43,8.78,10.23,14a83.83,83.83,0,0,1,4.49,7.09l2.37,4,1.29,2,1.24,1.9c1.64,2.53,3.27,5,4.79,7.47.76,1.24,1.47,2.43,2.2,3.7l2.25,3.93c1.5,2.59,2.95,5.14,4.27,7.66.67,1.28,1.25,2.45,1.8,3.7s1.08,2.53,1.59,3.87c1,2.66,2,5.6,3.36,8.67,1.25,2.9,2.61,5.73,3.93,8.43.65,1.34,1.31,2.68,1.79,3.82l.32.78.38,1.06a20.61,20.61,0,0,0,1.42,3,14.14,14.14,0,0,0,2.61,3.26l1.78,1.57,3.32,2.9a24.36,24.36,0,0,1,4.73,5.29,21.4,21.4,0,0,1,2.28,6.5c.26,1.28.47,2.64.68,4.08l.63,4.38a32.45,32.45,0,0,1,.15,7.55,23.9,23.9,0,0,1-1.71,6.86,13,13,0,0,1-3.5,4.91,12.23,12.23,0,0,1-2.48,1.59,13.08,13.08,0,0,1-2.84,1,10,10,0,0,1-5.48-.3,10.28,10.28,0,0,1-1.34-.56c-.48-.22-1.09-.56-1.6-.85a26.81,26.81,0,0,1-3-2,18,18,0,0,1-4.41-5,22.48,22.48,0,0,1-1.48-3.17,32.36,32.36,0,0,1-1.16-3.61,40.29,40.29,0,0,1-1.22-7.69c-.35-4.67.94-10.16,2.27-16l.1-.46c0-.18.07-.37.1-.56.06-.39.09-.78.12-1.17a12.91,12.91,0,0,0-.1-2.33,13.79,13.79,0,0,0-1.2-4,15.69,15.69,0,0,0-.82-1.54l-.7-1.14q-.69-1.08-1.35-2l-5.11-7.43-1.22-1.83c-.39-.59-.84-1.28-1.07-1.66a36.91,36.91,0,0,1-1.73-3.41,81.6,81.6,0,0,0-4.37-8.74c-.46-.75-1-1.57-1.51-2.27s-1-1.33-1.46-2c-1-1.28-2-2.51-3-3.7-2-2.39-3.87-4.65-5.65-6.89l-6-7-3-3.52c-1-1.16-2-2.34-3.1-3.53-2.21-2.35-4.47-4.53-6.71-6.64l-3.34-3.1L994,646.7c-.63-.56-1.26-1.1-1.92-1.64a39,39,0,0,0-9-5.73,28.61,28.61,0,0,0-5.44-1.76,18.51,18.51,0,0,0-5.56-1.49c-4.14-.58-6.75-2.81-9.28-5.67a17.91,17.91,0,0,1-.06-12.81,23.68,23.68,0,0,1,4.11-7,26.39,26.39,0,0,1,15.56-4.23l.5.19,2.24.78a39.75,39.75,0,0,1,7.05,3.29c.57.33,1.16.7,1.69,1S994.84,612.33,995.35,612.7ZM863.9,645.86c-6.86,4.24-16.48,5.57-26.49,0-1.77-1.65-3.53-3.62-3.74-5.57-.32-3.06,2.62-3.89,4.84-2.88a4.45,4.45,0,0,0,6.72-5.78l-4.35-6c-1.67-3.54-3.54-7.53-2.61-11.29,1-3.91,4.14-6.45,7.53-8.3a14.8,14.8,0,0,1,1.55-.23,25.66,25.66,0,0,1,9.73,1.51h0a17.66,17.66,0,0,0,6.51,2.73,12.81,12.81,0,0,0,4.46,0,12.3,12.3,0,0,0,2.3-.65c.36-.15.72-.31,1.07-.48l.58-.3,1.74-.94a1.76,1.76,0,0,1,.33.07,4,4,0,0,1,2.33,2.06C880.33,626,873.83,639.72,863.9,645.86ZM738.32,557.44c-.32-.26-.59-.55-.92-.82s-.67-.72-1-1.11a19.44,19.44,0,0,1-1.71-2.41A18.83,18.83,0,0,1,732,541.74a15.56,15.56,0,0,1,4.83-10.17,17,17,0,0,1,5.06-3.08,23,23,0,0,1,6.35-1.35h.13a4.45,4.45,0,0,0-.09-8.87l-.82,0c-3-.86-7.65-2.67-6.74-6.54a7.72,7.72,0,0,1,.53-1.43,19.69,19.69,0,0,1,4.83-5.06,24.46,24.46,0,0,1,7.76-3.61,33.46,33.46,0,0,1,18.35.76,34.14,34.14,0,0,1,15.75,10.35l.05.06a4.44,4.44,0,0,0,7.14-5.26,37,37,0,0,0-5-6.15,3.79,3.79,0,0,0-.86-1.11c-3.32-3-5.21-6.73-4.27-11.28a12.72,12.72,0,0,1,4.66-7.21l.37-.25a30,30,0,0,1,19.72-3.45c6.92,1,13.66,4.25,18.1,9.19a19.09,19.09,0,0,1,4.51,8.52,21.79,21.79,0,0,1-.24,10.1l0,.11a4.45,4.45,0,0,0,8.47,2.65l.18-.5c0-.09.12-.17.17-.27,1.29-2.53,2.62-5.62,5.43-6.76a7.31,7.31,0,0,1,3-.48,22.63,22.63,0,0,1,14.91,14.68,23.29,23.29,0,0,1-1.35,18.18,15.26,15.26,0,0,1-5.49,4.47c-3.81,1.59-6.59-.38-9.37-2.76a21.38,21.38,0,0,0-2.37-2.08,22.16,22.16,0,0,0-7.43-3.56,12.2,12.2,0,0,0-1.37-.45,13.79,13.79,0,0,1-3.17-.94,8.26,8.26,0,0,1-1.81-1.49,4.43,4.43,0,0,0-8.24-.27l-.06.13a49.62,49.62,0,0,1-6.78,11.62,25.82,25.82,0,0,1-9.54,7.34,25.33,25.33,0,0,1-8.28,1.94c-3.33-.23-7.12-.59-9.63-2.91a10.61,10.61,0,0,1-2.75-5.95,58.79,58.79,0,0,0,0-6.5,4.45,4.45,0,0,0-8.87-.18V532a43.43,43.43,0,0,1-3.24,13.61,26.64,26.64,0,0,1-7.84,10.2,26.12,26.12,0,0,1-5.41,3.26,27.08,27.08,0,0,1-6.06,1.79,24.68,24.68,0,0,1-12.16-.86A15.07,15.07,0,0,1,738.32,557.44Zm41.58,19.89c-.53-1.43-1-2.88-1.45-4.35-.54-5,0-10.3,5.64-11.83a26.62,26.62,0,0,1,7.12-.69c1.33.12,2.69.19,4.06.2a36.75,36.75,0,0,0,17.39-4,34.42,34.42,0,0,0,13-11.95q1.61-1.18,3.3-2.22a13.21,13.21,0,0,1,7-.82,9.51,9.51,0,0,1,6.87,7.75,8.65,8.65,0,0,1-2.2,7.26c-1.82,2-4.91,3.18-8.38,3.61l-.18,0a5.07,5.07,0,0,0,1,10.08c1-.07,1.91-.2,2.87-.35,2.38.09,4.41.79,4.91,3.79a26.86,26.86,0,0,1,.31,5.17c-1.89,10.57-7,21.36-18.9,27a6.18,6.18,0,0,0-2.4.94,16.49,16.49,0,0,1-9.68.16C803.4,605.1,791.22,598.46,779.9,577.33Zm20.27,97c1-4.84,1.87-9.41,4-13a48.11,48.11,0,0,1,7.82-9.86c3.33-1.74,6.83-3.89,10.16-2.71a33,33,0,0,1,4.84,2.35c8.07,6.14,16.31,8.56,23.85,8.56a35.14,35.14,0,0,0,18.38-5.19c11.38-7,19.5-21.23,18.38-38.29a3.45,3.45,0,0,0,.34-1.87c-.31-3.67-.42-7.48,1.95-10.56a13.52,13.52,0,0,1,4.5-3.57c1.81-.32,3.69-.65,5.63-1.07,6.21-1.36,11.41-2.87,16-2.37,2.59.18,5.56.7,9,.94a38.22,38.22,0,0,0,5.35,0c1.71-.11,3.3-.29,4.77-.45s2.83-.3,4-.33c.61,0,1.17,0,1.71,0a15.2,15.2,0,0,1,1.58.17,54.12,54.12,0,0,1,7.73,2.19,49.74,49.74,0,0,0,5,1.39c1.06.22,2.08.37,3.08.5a4,4,0,0,1,.31,3.37,33.48,33.48,0,0,0-5.47,9.59A27.93,27.93,0,0,0,952,629.65a15.86,15.86,0,0,1,.45,4.42,3,3,0,0,1-1.88,2.54l-1.51.07c-.68,0-1.36,0-2,0l-2.29,0c-3.15,0-6.25.08-9.33.24l-4.41.26c-1.27.06-2.65,0-4.13,0a49.16,49.16,0,0,0-10,.36,5.07,5.07,0,0,0,1.31,10.05h.11a27,27,0,0,1,3.39,0c5.69,1.14,11.2,2.84,15.91,6.43a39.4,39.4,0,0,1,5.29,4.95c.1.15.19.31.28.46,1.74,2.75,3.58,5.38,5.36,7.92,1.06,1.52,2.12,3,3.14,4.54,1.7,2.54,3.53,4.83,5.3,7,1.37,1.71,2.66,3.32,3.8,4.94,2.08,2.93,4.18,5.71,6.22,8.4l2.74,3.65a83.76,83.76,0,0,0,5.86,6.83c1.47,1.58,2.85,3.07,4,4.52,1.56,2,3,4,4.33,6,1.52,2.19,2.95,4.25,4.49,6.15s2.94,3.69,4.15,5.29a18.18,18.18,0,0,1,1.67,6.26,6.24,6.24,0,0,0-1.32,3q-2.05,2.19-4.12,4.07c-2.38,2.17-5.33,3.58-8.44,5.07-1.24.59-2.51,1.21-3.75,1.87-3.8,2-7.84,3-12.12,4l-1.4.32a79.9,79.9,0,0,1-13.47,2.41c-3,.18-6,.18-9.18.18-2,0-4.05,0-6.07.05a58.33,58.33,0,0,0-10.71,1.5c-1.86.38-3.62.74-5.34,1a81.83,81.83,0,0,0-11,2.15,6.3,6.3,0,0,0-4.61,1.54l-.83.31a46.28,46.28,0,0,0-6.9,3.56,6.39,6.39,0,0,1-4,0,3.67,3.67,0,0,1-1.89-2c0-.48,0-1,0-1.57,0-1.56,0-3.12-.12-4.67a4.38,4.38,0,0,0,0-1c0-.14,0-.28,0-.43-.07-1.22-.13-2.41-.16-3.57a11.35,11.35,0,0,1,.86-3,10.64,10.64,0,0,1,9.41-4.38,36.43,36.43,0,0,0,6.42,1.8,4.45,4.45,0,0,0,2.44-8.52l-.1,0a66.16,66.16,0,0,1-9.84-5.28c-.87-.53-1.77-1.06-2.73-1.6s-1.8-1-2.59-1.46c-1.57-.94-3.13-1.91-4.62-3s-3-2.24-4.41-3.43-3.18-2.7-4.79-3.95c-3.27-2.56-6.25-4.77-8-7-2.31-2.84-4.61-6.1-7.06-9.45a106.58,106.58,0,0,0-8.21-9.85c-1.51-1.56-3.05-3.1-4.68-4.54l-1.25-1.08a6.61,6.61,0,0,0-1.06-.91c-.73-.63-1.44-1.24-2.23-2-3-2.69-6.65-5.85-11.08-7.77a4.46,4.46,0,0,0-4.39,7.7l.12.08a29.23,29.23,0,0,1,2.38,2,41.37,41.37,0,0,1,5.71,13.26,30.78,30.78,0,0,1,0,6c0,.18-.07.4-.1.6-.66,1.93-1.74,4.27-3.65,4.24-.93,0-2-.95-2.8-1.36a31.11,31.11,0,0,0-12-6.9,35,35,0,0,0-17-1,11,11,0,0,1-5.09-1.11,4,4,0,0,1-1.54-3.33c.1-.6.22-1.18.31-1.8.83-5.55,1.91-11,2.76-15.21Zm-42.47.77a17.9,17.9,0,0,1,.75,3.32c.07.59.14,1.19.18,1.81s0,1.25,0,1.79a26,26,0,0,1-1.4,7.38c-.42,1.29-.92,2.62-1.44,3.94s-1.05,2.59-1.64,3.81a35.19,35.19,0,0,1-4.2,6.69l-.07.07a5.07,5.07,0,0,0,5.13,8.11,15.58,15.58,0,0,1,4,1.53l.13.14c.91,1,1.68,1.86,2.46,2.82s1.55,2,2.31,3,1.48,2,2.15,3.06,1.25,2,1.91,3.17,1.45,2.55,2.27,3.81,1.67,2.46,2.52,3.62c1.6,2.18,3.12,4.29,4.65,6.51s3.21,4.55,4.83,6.76,3.29,4.43,4.95,6.6,3.23,4.27,4.84,6.45a5.07,5.07,0,0,0,8.28-5.86c-1.09-1.61-2.21-3.24-3.34-4.85a91.68,91.68,0,0,1-4.36-17.92c0-.68.1-1.36.16-2.05.15-2.07.32-4.22.44-6.44,0-.09,0-.18,0-.27.77-4.9,2.22-10.23,6.43-12.66a22.43,22.43,0,0,1,2.93-1.12l.07,0a25,25,0,0,1,14.64.15,20.39,20.39,0,0,1,13.86,14.43q0,6.47-.35,12.91l-.37,1.61c-.28,1.15-.57,2.28-.87,3.38l-1,3.61c-.73,2.78-1.15,5.34-1.62,7.57-.23,1.12-.47,2.15-.74,3.08-.14.47-.29.91-.44,1.32l-.59,1.52c-.85,2.08-1.84,4.18-2.89,6.34s-2.15,4.31-3.29,6.84-2,4.71-2.92,6.74a21.07,21.07,0,0,1-2.79,4.84,26.82,26.82,0,0,1-4.43,3.91c-1,.73-2,1.51-3.18,2.5-.53.43-1.32,1.17-1.62,1.45s-.81.75-1.2,1.09a16.93,16.93,0,0,1-4.32,2.95,6.65,6.65,0,0,1-1.77.47c-.18,0-.18,0-.25,0h-.17a2.27,2.27,0,0,1-.46-.11,12.58,12.58,0,0,1-3.87-2.59c-.78-.68-1.57-1.44-2.38-2.24-1.09-1.09-2.14-2-3.12-2.83-2-1.66-3.67-3.07-5.05-4.5a19.36,19.36,0,0,1-1.82-2.14c-.24-.3-.62-.85-.93-1.31l-1-1.44c-1.28-2-2.54-4-3.79-6L772,768.69l-.83-1.43c-.23-.4-.45-.83-.66-1.28-.87-1.82-1.67-4-2.61-6.41-.48-1.21-1-2.48-1.61-3.79-.3-.64-.66-1.35-1-2l-.92-1.69c-2.46-4.48-4.92-8.55-6.86-12.66-1-2.11-2-4.28-2.93-6.52l-1.49-3.42-1.48-3.34a22.21,22.21,0,0,1-1-2.75c-.28-.91-.43-1.67-.73-3.11-.07-.33-.18-.8-.29-1.22s-.26-.93-.46-1.44a15.94,15.94,0,0,0-1.33-2.75,28.31,28.31,0,0,0-2.94-3.92,6.26,6.26,0,0,0-1.81-1.44l-.06,0c-2.93-1.53-5.76-2.79-8.07-4.08a20.86,20.86,0,0,1-2.94-1.91,6.22,6.22,0,0,1-.53-.45l-.73-.69c-.5-.49-1-1-1.48-1.48a39.11,39.11,0,0,1-5-6.13c-.32-.51-.62-1-.89-1.54a11.78,11.78,0,0,1-.61-1.36,17,17,0,0,1-.81-3.22c-.2-1.19-.31-2.54-.42-4.06-.06-.76-.12-1.57-.21-2.46l-.25-2.16a7.77,7.77,0,0,1,1-4.82,5,5,0,0,1,1.39-1.39,5.11,5.11,0,0,1,.46-.28l.14-.08.25-.13.52-.26,2-1c1.25-.63,2.47-1.24,3.66-1.8.07,0,.14,0,.21-.06l.35-.2c1.19-.55,2.35-1,3.45-1.44a23.88,23.88,0,0,1,7.13-1.4,30.61,30.61,0,0,1,3.81.09c.66.06,1.34.13,2,.22s1.18.16,1.75.28a11.11,11.11,0,0,1,5.27,2.47A11.8,11.8,0,0,1,757.7,675.12Zm-49.6-80.74c.42.68.84,1.37,1.28,2.06a57.86,57.86,0,0,1,4.27,8.14h0a57.68,57.68,0,0,1,2.81,8.73l.19.74a44.62,44.62,0,0,1,1.55,8,24.53,24.53,0,0,1-.69,8,5.4,5.4,0,0,1-2.8,3.65,5.55,5.55,0,0,1-4.77-.09c-1.89-.93-4.21-3.2-6.22-5.28l-.34-.36a43.21,43.21,0,0,1-5.52-6.52,23.62,23.62,0,0,1-1.91-4.56c-.46-1.31-.93-2.66-1.54-4.07s-1.18-2.54-1.77-3.71a26.68,26.68,0,0,1-2-4.74,42.2,42.2,0,0,1-.94-8.48l0-.49a24.94,24.94,0,0,1,.69-8,5.22,5.22,0,0,1,2.92-3.52,3.26,3.26,0,0,1,1.43-.3,6.9,6.9,0,0,1,3,.83,23.87,23.87,0,0,1,6.65,4.59A33.81,33.81,0,0,1,708.1,594.38Z" transform="translate(-95.28 -189.79)"/></svg>