<svg width="200" height="40" viewBox="0 0 200 40" fill="none" xmlns="http://www.w3.org/2000/svg">
<path d="M3.7025 17.6378V15.1181H1.22571V0H6.17928V10.0787H8.65606V0H11.1328V10.0787H13.6096V0H18.5632V15.1181H16.0864V17.6378H13.6096V15.1181H11.1328V12.5984H8.65606V15.1181H6.17928V17.6378H3.7025ZM21.04 17.6378V0H38.3775V2.51969H25.9935V7.55906H35.9007V10.0787H25.9935V15.1181H38.3775V17.6378H21.04ZM40.8542 17.6378V0H55.7149V2.51969H58.1917V7.55906H55.7149V10.0787H58.1917V15.1181H55.7149V17.6378H40.8542ZM45.8078 7.55906H53.2381V2.51969H45.8078V7.55906ZM45.8078 15.1181H53.2381V10.0787H45.8078V15.1181Z" fill="#27363B"/>
<path d="M7.43037 38.1102V22.9921H2.47681V20.4724H17.3375V22.9921H12.3839V38.1102H7.43037ZM19.8143 38.1102V20.4724H37.1517V22.9921H24.7678V28.0315H34.6749V30.5512H24.7678V35.5906H37.1517V38.1102H19.8143ZM39.6285 38.1102V33.0709H42.1053V30.5512H44.5821V28.0315H42.1053V25.5118H39.6285V20.4724H44.5821V25.5118H47.0588V28.0315H49.5356V25.5118H52.0124V20.4724H56.966V25.5118H54.4892V28.0315H52.0124V30.5512H54.4892V33.0709H56.966V38.1102H52.0124V33.0709H49.5356V30.5512H47.0588V33.0709H44.5821V38.1102H39.6285ZM59.4428 38.1102V20.4724H64.3963V28.0315H71.8267V20.4724H76.7802V38.1102H71.8267V30.5512H64.3963V38.1102H59.4428ZM81.7338 38.1102V35.5906H79.257V22.9921H81.7338V20.4724H94.1177V22.9921H96.5945V35.5906H94.1177V38.1102H81.7338ZM84.2106 35.5906H91.6409V22.9921H84.2106V35.5906ZM99.0712 38.1102V33.0709H101.548V30.5512H104.025V20.4724H116.409V38.1102H111.455V22.9921H106.502V35.5906H104.025V38.1102H99.0712ZM121.362 38.1102V35.5906H118.885V22.9921H121.362V20.4724H133.746V22.9921H136.223V35.5906H133.746V38.1102H121.362ZM123.839 35.5906H131.269V22.9921H123.839V35.5906ZM141.176 38.1102V20.4724H156.037V25.5118H153.56V22.9921H146.13V38.1102H141.176ZM158.514 38.1102V20.4724H163.468V30.5512H165.944V28.0315H168.421V25.5118H170.898V20.4724H175.851V38.1102H170.898V30.5512H168.421V33.0709H165.944V35.5906H163.468V38.1102H158.514ZM178.328 38.1102V20.4724H183.282V30.5512H185.759V28.0315H188.235V25.5118H190.712V20.4724H195.666V38.1102H190.712V30.5512H188.235V33.0709H185.759V35.5906H183.282V38.1102H178.328Z" fill="#27363B"/>
</svg>
